<?xml version="1.0" encoding="utf-8"?>
<!-- Generator: Adobe Illustrator 22.1.0, SVG Export Plug-In . SVG Version: 6.00 Build 0)  -->
<!DOCTYPE svg PUBLIC "-//W3C//DTD SVG 1.1//EN" "http://www.w3.org/Graphics/SVG/1.1/DTD/svg11.dtd">
<svg version="1.1" id="Calque_1" xmlns="http://www.w3.org/2000/svg" xmlns:xlink="http://www.w3.org/1999/xlink" x="0px" y="0px"
	 viewBox="0 0 2618 1440" style="enable-background:new 0 0 2618 1440;" xml:space="preserve">
<style type="text/css">
	.st0{fill:#B3B3B3;}
	.st1{fill:none;}
	.st2{fill:#B3B3B3;stroke:url(#SVGID_1_);stroke-width:11.7864;stroke-miterlimit:10;}
	.st3{fill:#B3B3B3;stroke:url(#SVGID_2_);stroke-width:11.7864;stroke-miterlimit:10;}
</style>
<g>
	<g>
		<g>
			<g>
				<g>
					<g>
						<g>
							<g>
								<path class="st0" d="M2570.5,863.6c-0.8-0.5-1.9-0.8-3.2-0.9l-6.4-0.8l-0.5-6.2c-7.8-78.6-79.8-88.1-196.8-97.2l-3.5-0.3
									c-31.6-2.6-67.4-5.4-104.5-10.4c-133.1-18.1-180.4-56.1-194.7-71.6l-2.9-3.1l1-4.1c2.1-8,3.4-13.7,3.9-16.1
									c0.5-2.5-0.4-5.1-2.3-6.7c-5.1-4.5-128.6-112.3-193.3-129.4c-5.8-1.6-11.5-2.3-17.1-2.3c-30.2,0-56,22-88.7,49.9
									c-31.1,26.4-70,59.4-125.9,83.2c-21,8.9-43.9,13.6-68.4,13.6c-11,0-22.4-1-34-2.9l7.6,15.2c8.6,1,17.2,1.6,25.5,1.6
									c26.6,0,51.6-4.9,74.7-14.8c57.8-24.6,97.5-58.3,129.2-85.6l4.9-4c3.9-3.4,7.6-6.5,11.3-9.5l4.8-3.9l4.8,3.6l134.2,100.8
									l0.3,0.3c2.7,1.8,59.5,40.7,23.6,110.6l-2.8,5.6l-6-1.6c-42.5-10.5-82.6-15.8-119.3-15.8c-41.9,0-78.4,7-108.6,21
									c-36,16.5-63.4,43-81,78.8l7.9,15.4l2.5-5.2c16.3-35,42.1-60.8,76.3-76.5c28.3-13.1,62.7-19.7,102.3-19.7
									c87.8,0,171.2,31.9,174.7,33.2c0.8,0.4,1.7,0.5,2.5,0.5c2.2,0,4.1-0.9,5.4-2.6c13-16.2,27.7-52.5,42.6-104.9l3.1-11.4
									l9.2,7.4c26.1,21,80.2,49.3,190.7,64.4c17.9,2.5,35.1,4.3,51.2,5.8l7.4,0.8l-0.4,7.4c-0.1,4.3-0.8,10.8-3,18.3
									c-8,27-33.6,42-144.5,43.7c-6.5,0.1-13.1,0.1-19.8,0.1c-8.7,0-17.6,0-26.8-0.1H2095c-96.8,0-194,5.8-228.4,76l-2.6,5.4
									l-6-1.2c-94.5-19.3-152-29.3-205.2-35.6l-6-0.8l7.5,14.9c68.4,8.4,140.8,22.3,256.8,46.4c64.4,13.5,132.9,20.2,203,20.2
									c199.2,0,367.7-54.2,431-77.5l17.9-6.6l-8.3,17.2c-16.7,35.1-68.2,48.9-74.3,50.4l-0.5,0.1
									c-137.3,45.8-291.8,52.6-371.8,52.6c-67.7,0-123-4.7-145.7-8.9c-5.1-0.8-11.5-2.1-19.3-3.5l-1.3-0.3
									c-35.9-6.5-102.9-18.5-162.3-31.9c-38.8-8.8-81-15.7-105.3-19.4l7.8,15.2c36.3,5.7,68.1,11.7,94.6,17.6
									c59.1,13.2,126.6,25.5,162.8,32.1c8.2,1.4,15.2,2.7,20.5,3.8c23.7,4.4,80.2,9.1,148.2,9.1c98.4,0,243.2-9.2,375.1-53
									c10.2-2.6,94.2-25.8,90.1-90.7C2573.6,866.9,2572.3,864.8,2570.5,863.6z M2047.6,658.6c-2.2,9.3-22.4,92.7-43.8,129.4
									l-3.2,5.7l-6.1-2.3c-4.7-1.7-11.3-3.8-20.6-6.7l-8.6-2.6l3.8-8c28.4-61.4-5.4-106-29.9-122.6l-127.8-96.2l-8.8-6.6l9.2-6.1
									c14.8-9.7,26.8-14,39-14c4.4,0,8.8,0.5,13.2,1.7c2.1,0.6,4,1.2,6.1,1.9l10.5,3.8l-7.3,8.6l-8.9,10.6
									c-1.2,1.4-1.7,3.1-1.6,4.8c0.1,1.9,0.9,3.6,2.3,4.8c1.3,1.2,2.9,1.7,4.4,1.7c2.1,0,3.9-0.9,5.2-2.5l14.5-17.1l4-4.7l5.4,2.9
									c7.8,4.1,15.8,8.9,23.3,13.5l7.5,4.5l-5.3,6.9l-13.1,16.8c-1.2,1.4-1.7,3.2-1.4,5.1c0.3,1.8,1.2,3.4,2.6,4.4
									c1.2,1,2.7,1.6,4.1,1.6c2.2,0,4.1-0.9,5.4-2.6l14.5-18.7l4.5-5.7l6,4c5.1,3.5,10.1,7.1,15,10.6l5.4,3.9l6.5,4.7l-4.7,6.4
									l-13.1,17.6c-1.2,1.4-1.6,3.2-1.3,5.1c0.3,1.8,1.3,3.4,2.7,4.5c1.2,0.9,2.6,1.3,4,1.3c2.2,0,4.3-1,5.6-2.7l12.8-17.5
									l4.7-6.4l6.4,4.8c7.3,5.7,14.1,11.1,20.6,16.2l5.7,4.5l-4.1,6l-13.1,18.9c-2.3,3.2-1.6,7.4,1.6,9.6c1.2,0.8,2.6,1.3,3.9,1.3
									c2.3,0,4.4-1,5.7-3l11.9-17l4.9-7l6.5,5.4l5.1,4.3c2.1,1.7,3.9,3.2,5.4,4.7l3.6,3L2047.6,658.6z M2542.1,871.8
									c-62.5,23.2-229.3,77.3-427.8,77.3c-68.8,0-136.2-6.6-200.3-19.8c-4.4-1-8.7-1.9-13-2.7c-4.4-0.9-8.7-1.8-12.8-2.7
									l-10.8-2.3l5.7-9.3c34.5-56.3,119.3-60.9,210.4-60.9h23.1c8,0.1,16.2,0.1,24.2,0.1s16.2,0,24-0.1
									c106.2-1.6,145.8-15,157.2-53.4c2.6-8.7,3.2-15.8,3.5-20.6l0.5-7.9l7.9,0.6l7,0.6c7.4,0.5,14.4,1,21.4,1.6
									c109.1,8.6,181.3,14.3,184.7,92l0.3,5.7L2542.1,871.8z"/>
							</g>
						</g>
					</g>
				</g>
			</g>
		</g>
	</g>
	<g>
		<g>
			<g>
				<g>
					<g>
						<g>
							<g>
								<g>
									<g>
										<path class="st0" d="M1598.5,972.3l-215.4-421.8l-3.4-6.6l4-6.2c7.1-11.1,8.7-24,4.3-35.8c-4.4-11.8-13.9-20.6-26.2-24.4
											l-9.7-2.9l0.5-10.2c1.7-26.3,4.3-51.6,5.7-64.2c0.3-3.1-1.9-5.8-4.9-6.1c0,0,0,0-0.1,0c-3.4,0-5.7,2.1-6,4.8
											c-1.9,17.1-4.5,42.9-6,69.2l-0.4,7.9l-7.3,3.1c-3.8,1.8-8.4,4.8-11.4,7.8l-0.8,0.8l-1,0.6
											c-15.3,10.1-68.3,18.1-120.4,18.1c-27.3,0-53.7-2.1-78-6.2c-33.1-6.6-39.1-9.9-46.4-16.1c-1.8-1.4-3.4-2.7-8.3-5.1
											l-7.3-3.1l-0.4-7.9c-1-17.8-6-79.1-8.3-87c-16.1-42.1-15.9-91.9-15.8-132v-24.9h64.7l3.9,4.5c4.3,4.9,9.3,8,11.8,8.9
											c33.3,12.3,47.3,32.8,57.4,47.7c3.1,4.5,5.8,8.4,8.4,11.1c4.8,5.2,11.5,8.2,18.7,8.2c1.7,0,3.5-0.1,5.2-0.5
											c10.2-2.1,14.4-7.6,22-18.9c21.9-32.1,38.5-39.3,51.7-45.1c7.3-3.1,12.2-5.2,17.5-11.4l3.9-4.5h64.7v13
											c0,6.2,0,11.9,0.1,17.4c0,20.1,0.1,35.9-1.7,58.1c-0.3,3.1,1.9,5.8,4.9,6.1c0.1,0,0.1,0,0.1,0c3.2,0,5.7-2.2,6-5.1
											c1.3-16.2,1.7-30.3,1.7-30.5V208c0.3-72.8,0.1-73-2.9-80.2l-0.4-0.8c-6.5-15.3-20.1-24.4-36.4-24.4
											c-17.9,0-38.2,11.3-40.7,36c-0.4,3-0.3,20-0.3,32.4c0.1,16.6,0.1,27-0.1,30.6c-0.6,7-3.1,19.6-13.7,25.3l-0.8,0.4
											l-0.8,0.4c-36.9,13.9-53.3,38.4-62.1,51.6c-5.3,8-9.6,14.4-18.1,14.4h-1l-2.1-0.1l-1.9-0.9c-5.4-2.2-8.4-6.7-13-13.5
											c-8.7-13.2-24.9-37.6-61.8-51.5l-0.8-0.4l-0.8-0.4c-10.8-5.7-13.1-18.9-13.6-24.4c-0.3-3-0.3-4.4-0.3-15.8v-44.1
											c0-24.9-21.1-40.3-40.6-40.3c-9.1,0-17.8,3.1-25.1,9.1c-9.5,7.6-14.9,19.1-14.9,31.2c0,19.8-0.1,38.1-0.3,55.3
											c-0.5,83.2-1,138.3,16.2,185.4l0.5,1.4l0.3,1.4c1.2,9.3,5.1,42.6,7.3,78l0.6,10.4l-9.9,2.9c-12.2,3.6-21.6,12.7-26.1,24.6
											c-4.4,12.1-3,25,3.9,35.8l4.1,6.2l-3.5,6.7l-38,74.3c-0.9,1.8-0.5,3.5-0.3,4.3c0.3,0.8,0.9,2.3,2.7,3.2
											c0.8,0.4,1.6,0.6,2.5,0.6c1.7,0,3.9-0.9,4.9-3.1l34-66.4l6.1-11.9l11.8,6.6c32.1,18,91.1,28.6,157.6,28.6
											c66,0,127.7-11,161-28.8l11.5-6.1l6.1,11.7l211,413.2c1.2,2.3,3.2,3.1,4.9,3.1c2.7,0,4.3-1.9,4.7-2.7
											C1598.9,976.5,1599.7,974.6,1598.5,972.3z M1307,199.8v-0.1c0-1.4,0-1.4,0-13.7v-43.3c0-16.1,13.1-29.2,29.3-29.2
											c16.1,0,29.2,13.1,29.2,29.2v70.6h-59L1307,199.8z M1035.5,155.1c-0.1-15.7-0.1-18,2.2-23.7c4.7-11,14.9-17.9,26.8-17.9
											c7.4,0,14.5,2.7,20,7.5c6.1,5.6,9.5,13.2,9.5,21.6V186c0,12.1,0,12.1,0,13.7l0.5,13.3l-13.5,0.1h-45.6l0.1-13.1
											C1035.7,177.8,1035.5,163.9,1035.5,155.1z M1379,519.5c-8.2,55-164.1,56.5-181.9,56.5c-30.3,0-131.8-2.9-167.3-39.7
											c-11.1-11.7-10.9-30.2,0.8-41.4c5.4-5.3,12.6-8.2,20.2-8.2c6.9,0,13.5,2.3,18.7,6.7c17.4,14.4,68.7,23.7,130.8,23.7
											c69.3,0,118.2-11.1,129-21.8c5.7-5.6,13.1-8.7,20.7-8.7c8.6,0,16.7,3.8,22.4,10.4C1377.9,503.4,1380.2,511.5,1379,519.5z"
											/>
									</g>
								</g>
							</g>
						</g>
					</g>
				</g>
				<g>
					<g>
						<g>
							<g>
								<g>
									<g>
										<path class="st0" d="M1661.1,1183.2c-58.3,43.4-116.8,46.3-168.4,48.9c-45,2.1-87.5,4.1-117.8,34.6
											c-46.7,46.7-108.6,72.3-174.3,72.3c-64.8,0-126-24.9-172.3-70.1c-33.7-32.9-77-35-122.9-37.2
											c-50.2-2.3-107.2-4.9-165.5-48.5c-18.9-14.3-24.9-39.8-14.1-60.8l214.7-420.2c1.2-2.2,3.4-3,4.9-3c0.9,0,1.7,0.1,2.6,0.5
											c1.7,0.9,2.5,2.5,2.7,3.2c0.3,0.9,0.5,2.5-0.4,4.3l-214.7,420.2c-8.3,16.2-3.8,35.9,10.9,46.8
											c55.2,41.2,110.8,44.1,159.8,46.5c26.6,1.3,51.7,2.6,75.6,9.3l13.6,3.9l2.7-13.9l98-500.5c0.5-2.6,2.9-4.5,5.4-4.5
											c0.4,0,0.8,0.1,1,0.1c3,0.6,4.9,3.5,4.4,6.5l-99.5,508.4l-1.8,8.9l7.9,4.7c8.2,4.9,15.4,10.5,22.4,17.4
											c44.2,43.2,102.5,66.9,164.1,66.9c63.1,0,122.4-24.5,167-69.1c5.8-5.7,12.2-10.9,18.9-15.2l7.5-4.7l-1.7-8.8l-99.5-508.4
											c-0.6-3,1.3-5.8,4.3-6.5c0.4,0,0.8-0.1,1.2-0.1c2.6,0,4.8,1.9,5.3,4.5l98.1,500.3l2.7,13.7l13.5-3.8
											c22.9-6.5,47.8-7.6,74.3-8.9c50.3-2.5,107.2-5.3,162.8-46.8c14.6-10.9,19.2-30.6,10.9-46.7l-37.5-73.5
											c-1.4-2.7-0.3-6,2.5-7.4c0.8-0.4,1.6-0.6,2.5-0.6c1.6,0,3.8,0.8,4.9,3.1l37.5,73.4C1686,1143.5,1680,1168.9,1661.1,1183.2
											z"/>
									</g>
								</g>
							</g>
						</g>
					</g>
				</g>
			</g>
		</g>
		<g>
			<g>
				<g>
					<g>
						<g>
							<g>
								<line class="st1" x1="799.2" y1="1109.5" x2="967.7" y2="785.5"/>
							</g>
						</g>
					</g>
				</g>
			</g>
			<g>
				<g>
					<g>
						<g>
							<g>
								<path class="st0" d="M799.1,1116c-1,0-2-0.2-3-0.7c-3.2-1.6-4.4-5.6-2.8-8.7l168.6-324.1c1.7-3.2,5.6-4.4,8.7-2.8
									c3.2,1.6,4.4,5.6,2.8,8.7l-168.5,324.1C803.7,1114.8,801.5,1116,799.1,1116z"/>
							</g>
						</g>
					</g>
				</g>
			</g>
		</g>
		<g>
			<g>
				<g>
					<g>
						<g>
							<g>
								<line class="st1" x1="1121.7" y1="899.7" x2="1132.5" y2="832"/>
							</g>
						</g>
					</g>
				</g>
			</g>
			<g>
				<g>
					<g>
						<g>
							<g>
								<path class="st0" d="M1121.7,906.2c-0.3,0-0.7,0-1-0.1c-3.5-0.6-5.9-3.9-5.4-7.4l10.8-67.8c0.6-3.5,4-5.9,7.4-5.4
									c3.5,0.6,5.9,3.9,5.4,7.4l-10.8,67.8C1127.6,903.9,1124.8,906.2,1121.7,906.2z"/>
							</g>
						</g>
					</g>
				</g>
			</g>
		</g>
		<g>
			<g>
				<g>
					<g>
						<g>
							<g>
								<line class="st1" x1="1075.1" y1="1192.7" x2="1106.8" y2="993.2"/>
							</g>
						</g>
					</g>
				</g>
			</g>
			<g>
				<g>
					<g>
						<g>
							<g>
								<path class="st0" d="M1075.1,1199.2c-0.3,0-0.7,0-1-0.1c-3.5-0.6-5.9-3.9-5.4-7.4l31.7-199.5c0.6-3.5,3.9-5.9,7.4-5.4
									c3.5,0.6,5.9,3.9,5.4,7.4l-31.7,199.5C1081,1196.9,1078.2,1199.2,1075.1,1199.2z"/>
							</g>
						</g>
					</g>
				</g>
			</g>
		</g>
		<g>
			<g>
				<g>
					<g>
						<g>
							<path class="st0" d="M1314.4,363.1c0,32.7-26.7,59.4-59.4,59.4c-24,0-44.6-14.3-54-34.8c-9.4,20.5-30,34.8-54,34.8
								c-32.7,0-59.4-26.7-59.4-59.4c0-3,2.4-5.4,5.4-5.4s5.4,2.4,5.4,5.4c0,26.8,21.8,48.6,48.6,48.6c26.8,0,48.6-21.8,48.6-48.6
								c0-3,2.4-5.4,5.4-5.4s5.4,2.4,5.4,5.4c0,26.8,21.8,48.6,48.6,48.6s48.6-21.8,48.6-48.6c0-3,2.4-5.4,5.4-5.4
								C1312.1,357.7,1314.4,360.1,1314.4,363.1z"/>
						</g>
					</g>
				</g>
			</g>
		</g>
	</g>
	<g>
		<g>
			<g>
				<g>
					<g>
						
							<linearGradient id="SVGID_1_" gradientUnits="userSpaceOnUse" x1="1136.1774" y1="874.9" x2="1136.1774" y2="874.9" gradientTransform="matrix(1 0 0 -1 0 1440)">
							<stop  offset="0" style="stop-color:#7A5F41"/>
							<stop  offset="0.1753" style="stop-color:#9C622D"/>
							<stop  offset="0.3462" style="stop-color:#E4A34F"/>
							<stop  offset="0.5115" style="stop-color:#FFD076"/>
							<stop  offset="0.6694" style="stop-color:#E4A34F"/>
							<stop  offset="0.8142" style="stop-color:#9C622D"/>
							<stop  offset="1" style="stop-color:#7A5F41"/>
						</linearGradient>
						<path class="st2" d="M1136.2,565.1"/>
					</g>
				</g>
			</g>
		</g>
	</g>
	<g>
		<g>
			<g>
				<g>
					<g>
						
							<linearGradient id="SVGID_2_" gradientUnits="userSpaceOnUse" x1="1265.7773" y1="874.9" x2="1265.7773" y2="874.9" gradientTransform="matrix(1 0 0 -1 0 1440)">
							<stop  offset="0" style="stop-color:#7A5F41"/>
							<stop  offset="0.1753" style="stop-color:#9C622D"/>
							<stop  offset="0.3462" style="stop-color:#E4A34F"/>
							<stop  offset="0.5115" style="stop-color:#FFD076"/>
							<stop  offset="0.6694" style="stop-color:#E4A34F"/>
							<stop  offset="0.8142" style="stop-color:#9C622D"/>
							<stop  offset="1" style="stop-color:#7A5F41"/>
						</linearGradient>
						<path class="st3" d="M1265.8,565.1"/>
					</g>
				</g>
			</g>
		</g>
	</g>
	<g>
		<g>
			<g>
				<g>
					<g>
						<path class="st0" d="M1615.8,714.2c-3.6,0-6.5-2.9-6.5-6.5s2.9-6.5,6.5-6.5c0.9,0,89.1-1.5,176.6-101.5c2.4-2.7,6.5-3,9.1-0.6
							c2.7,2.4,3,6.4,0.6,9.1C1710.5,713,1619.6,714.2,1615.8,714.2z"/>
					</g>
				</g>
			</g>
		</g>
	</g>
	<g>
		<g>
			<g>
				<g>
					<g>
						<path class="st0" d="M2095.4,914.1c-70.5,0-116.3-5.3-117.4-5.5c-3.6-0.4-6.1-3.7-5.6-7.2c0.4-3.6,3.8-6.1,7.2-5.6
							c2.7,0.3,267.1,31.2,509-58c3.3-1.3,7.1,0.5,8.3,3.8c1.2,3.4-0.5,7.1-3.8,8.3C2348.7,903.1,2196.5,914.1,2095.4,914.1z"/>
					</g>
				</g>
			</g>
		</g>
	</g>
	<g>
		<g>
			<g>
				<g>
					<g>
						<g>
							<g>
								<path class="st0" d="M698,591.6c-29.8,0-59.6,7-86.3,20.4l-4.4,2.2l-3.4-3.6c-10.2-11.4-21.3-21.6-32.8-30.7l-7.4-5.8
									l8.2-4.8c38.2-22.2,81.8-34,126.1-34c32.1,0,63.4,6,92.9,17.9c0.6,0.3,1.6,0.4,2.3,0.4c2.6,0,4.9-1.6,5.8-4
									c1.3-3.1-0.4-6.7-3.5-8c-31.1-12.3-63.9-18.7-97.6-18.7c-50.6,0-99.5,14.3-141.8,41.3l-3.4,2.2l-3.5-2.2
									c-18.1-11.4-37.5-20.6-57.6-27.5l-8.9-3l6.1-7.3l62.5-75.2c5.7-6.9,6.2-16.5,1.3-24l-45.8-69c-3.8-5.7-10-9.1-16.9-9.1
									H325.3c-6.7,0-13.1,3.4-16.8,9.1l-45.6,69c-4.9,7.5-4.4,17.1,1.3,24l62.3,75.1l6,7.3l-8.9,3c-107.1,36.3-179,136.4-179,249
									c0,144.8,118.1,262.6,263.1,262.6c50.4,0,99.4-14.3,141.7-41.3l3.5-2.2l3.5,2.2c34.5,22,74,35.8,114.5,39.9l6.1-11.9
									C547.4,1024,447.2,916.4,447.2,785.5c0-53.9,18-107.5,50.6-150.8l3.6-4.8l5.1,3.2c13,8.3,24.6,18,34.7,29.2l3.6,4l-3.1,4.3
									c-24.5,33.1-38,73.9-38,114.8c0,106.8,87.2,193.8,194.3,193.8c2.5,0,4.8,0,7.3-0.1l6.5-12.7c-4.5,0.4-9.1,0.5-13.7,0.5
									c-26.4,0-51.8-5.6-75.7-16.6l-7.1-3.2l4.7-6.5c33.4-45.2,51.1-98.9,51.1-155.2c0-23.1-3-46-8.9-68.2c-0.8-2.7-3.2-4.5-6-4.5
									c-0.5,0-1.2,0-1.7,0.1c-1.6,0.5-2.9,1.6-3.8,3c-0.8,1.4-1,3.1-0.5,4.7c5.6,21.3,8.4,43.2,8.4,64.9
									c0,54.8-17.5,106.9-50.7,150.6l-3.6,4.8l-5.1-3.2c-12.4-8-24.1-17.8-34.5-29l-3.6-3.9l3.1-4.4
									c24.8-33.4,37.9-73.2,37.9-114.8c0-106.9-87.1-193.9-194.3-193.9c-107.1,0-194.2,87-194.2,193.9c0,54.7,23.5,107.2,64.4,144
									c1.2,1,2.6,1.6,4.1,1.6c1.8,0,3.4-0.6,4.5-1.9c2.3-2.6,2.1-6.6-0.5-8.9C248,885.9,226,836.8,226,785.6
									C225.9,685.4,307.5,604,407.6,604c26.3,0,51.7,5.6,75.6,16.5l7.3,3.2l-4.7,6.5c-32.9,44.6-51.1,99.7-51.1,155.3
									c0,56.3,17.8,109.9,51.2,155.2l4.7,6.5l-7.3,3.2c-23.8,11-49.3,16.6-75.7,16.6c-27.4,0-53.9-6.1-78.9-18.1
									c-0.9-0.4-1.7-0.5-2.7-0.5c-2.3,0-4.5,1.3-5.4,3.4c-1.7,3.2-0.4,6.9,2.7,8.4c26.6,12.8,55,19.3,84.4,19.3
									c30.2,0,59.4-6.9,86.6-20.3l4.4-2.2l3.2,3.6c10.4,11.4,21.3,21.8,32.4,30.6l7.5,5.8l-8.2,4.8c-38.1,22.3-81.7,34-126,34
									c-138.2,0-250.7-112.3-250.7-250.2c0-138,112.5-250.3,250.7-250.3c97.6,0,187.2,57.2,228,145.7c1,2.2,3.2,3.6,5.7,3.6
									c0.8,0,1.7-0.1,2.5-0.5c3.1-1.6,4.5-5.2,3.1-8.3c-7.4-15.9-16.5-31.4-27-45.5l-4.7-6.5l7.3-3.2
									c23.5-10.8,49.5-16.5,75.4-16.5c63.5,0,121.8,32.8,154.8,86.5l1.7-3.4c1.6-3,3.5-5.7,6-7.9
									C824.4,624.2,764.1,591.6,698,591.6z M547.5,683.7l5.3-7.9l5.4,7.9c20.5,30.1,31.2,65.3,31.2,101.8s-10.8,71.6-31.2,101.6
									l-5.4,7.9l-5.3-7.9c-20.5-30.1-31.4-65.2-31.4-101.6S527,713.8,547.5,683.7z M492.2,374.6l5.3-8.2l5.4,8.2l32,48.3l6.6,10.1
									h-74.8l-1.9-2.9l-2.3-3.5L460,423l2.5-3.6L492.2,374.6z M485.8,361.5l-6.6,10.1l-21.1,32l-5.4,8.2l-5.3-8.2l-21.3-32
									l-6.7-10.1H485.8z M407.6,366.4l5.4,8.2l32,48.3l6.6,10.1h-87.9l6.6-10l31.9-48.3L407.6,366.4z M396,361.5l-6.6,10.1
									l-21.1,32l-5.4,8.2l-5.3-8.2l-21.1-32l-6.7-10.1H396z M280.6,422.9l32-48.3l5.3-8.2l5.4,8.2l29.7,44.8l2.3,3.6l-2.3,3.6
									l-2.3,3.5l-1.9,2.9h-74.9L280.6,422.9z M366.6,526c-6.6,1-11.9,2.1-17,3.2l-3.9,0.9l-2.5-3.1l-58.8-70.9l-8.8-10.6h72.5
									l1.4,4.4l22.3,67.7l2.3,7.3L366.6,526z M469.6,530.3l-3.9-0.9c-19.1-4.4-38.6-6.6-58.1-6.6c-5.3,0-10.6,0.3-15.8,0.5
									l-4.9,0.3l-1.6-4.7L363.8,454l-2.9-8.6h93.5l-2.9,8.6l-6.7,20.4c-1.2,3.2,0.6,6.7,4,7.9c0.6,0.1,1.3,0.3,1.8,0.3
									c2.7,0,5.2-1.7,6-4.1l9.5-28.5l1.4-4.4H540l-8.8,10.6l-59,71L469.6,530.3z"/>
							</g>
						</g>
					</g>
				</g>
			</g>
		</g>
		<g>
			<g>
				<g>
					<g>
						<g>
							<path class="st0" d="M403.8,500.3c-3.6,0-6.5-2.9-6.5-6.5v-25.9c0-3.6,2.9-6.5,6.5-6.5s6.5,2.9,6.5,6.5v25.9
								C410.3,497.4,407.4,500.3,403.8,500.3z"/>
						</g>
					</g>
				</g>
			</g>
		</g>
		<g>
			<g>
				<g>
					<g>
						<g>
							<path class="st0" d="M474.2,498c-1.3,0-2.6-0.4-3.7-1.2c-2.9-2-3.7-6.1-1.6-9l14.7-21.3c2-3,6.1-3.7,9-1.6
								c2.9,2,3.7,6.1,1.6,9l-14.7,21.3C478.3,497.1,476.3,498,474.2,498z"/>
						</g>
					</g>
				</g>
			</g>
		</g>
	</g>
</g>
</svg>
