<?xml version="1.0" encoding="utf-8"?>
<!-- Generator: Adobe Illustrator 22.1.0, SVG Export Plug-In . SVG Version: 6.00 Build 0)  -->
<!DOCTYPE svg PUBLIC "-//W3C//DTD SVG 1.1//EN" "http://www.w3.org/Graphics/SVG/1.1/DTD/svg11.dtd">
<svg version="1.1" id="Calque_1" xmlns="http://www.w3.org/2000/svg" xmlns:xlink="http://www.w3.org/1999/xlink" x="0px" y="0px"
	 viewBox="0 0 1440 1440" style="enable-background:new 0 0 1440 1440;" xml:space="preserve">
<style type="text/css">
	.st0{fill:url(#SVGID_1_);}
	.st1{fill:url(#SVGID_2_);}
	.st2{fill:url(#SVGID_3_);}
	.st3{fill:url(#SVGID_4_);}
	.st4{fill:url(#SVGID_5_);}
	.st5{fill:url(#SVGID_6_);}
	.st6{fill:url(#SVGID_7_);}
	.st7{fill:url(#SVGID_8_);}
	.st8{fill:url(#SVGID_9_);}
	.st9{fill:url(#SVGID_10_);}
	.st10{fill:url(#SVGID_11_);}
	.st11{fill:url(#SVGID_12_);}
	.st12{fill:url(#SVGID_13_);}
	.st13{fill:url(#SVGID_14_);}
	.st14{fill:url(#SVGID_15_);}
	.st15{fill:url(#SVGID_16_);}
	.st16{fill:url(#SVGID_17_);}
	.st17{fill:url(#SVGID_18_);}
	.st18{fill:url(#SVGID_19_);}
	.st19{fill:url(#SVGID_20_);}
	.st20{fill:url(#SVGID_21_);}
	.st21{fill:url(#SVGID_22_);}
	.st22{fill:url(#SVGID_23_);}
	.st23{fill:url(#SVGID_24_);}
	.st24{fill:url(#SVGID_25_);}
</style>
<g>
	<g>
		<linearGradient id="SVGID_1_" gradientUnits="userSpaceOnUse" x1="79.885" y1="720.6686" x2="1360.615" y2="720.6686">
			<stop  offset="0" style="stop-color:#7A5F41"/>
			<stop  offset="0.1753" style="stop-color:#9C622D"/>
			<stop  offset="0.3462" style="stop-color:#E4A34F"/>
			<stop  offset="0.5115" style="stop-color:#FFD076"/>
			<stop  offset="0.6694" style="stop-color:#E4A34F"/>
			<stop  offset="0.8142" style="stop-color:#9C622D"/>
			<stop  offset="1" style="stop-color:#7A5F41"/>
		</linearGradient>
		<path class="st0" d="M643.7,125.8c20.7,14.5,45.2,23.2,70.7,24.7c2.9,0.2,5.9,0.3,8.8,0.3c25.3,0,49.9-7,71.3-19.8L1302.6,639
			c-16,26.3-22.7,57.2-18.7,88.3c3.1,25.9,13.2,49.8,29.4,69.9l-516.5,516.5c-22.3-18-49.3-28.4-78.1-30.2c-3-0.2-5.9-0.3-8.9-0.3
			c-28.7,0-56,8.7-79,24.9L125.4,802.8c16.2-23.1,25-50.5,25-79.3c0-28.8-8.7-56.3-25-79.3L643.7,125.8 M642.5,80.3L79.9,643
			c2.3,1.9,4.5,4,6.7,6.2c20.5,20.5,30.8,47.4,30.8,74.3c0,26.9-10.2,53.8-30.8,74.3c-2.2,2.2-4.4,4.3-6.7,6.2l549.7,549.7
			c1.9-2.3,4-4.5,6.2-6.7c20.4-20.4,47.2-30.7,74-30.7c2.3,0,4.5,0.1,6.8,0.2c21.9,1.4,43.4,9.4,61.1,24.3c2.3,1.9,4.5,4,6.7,6.2
			c4.4,4.4,8.3,9.1,11.8,14l564.4-564.4c-5-3.4-9.7-7.4-14.1-11.8c-17.3-17.3-27.2-39-29.9-61.4c-3.9-30.9,6-63.4,29.9-87.2
			L797.3,87.1c-2.2,2.2-4.4,4.3-6.7,6.2c-19.4,16.3-43.4,24.5-67.3,24.5c-2.2,0-4.5-0.1-6.7-0.2c-24.7-1.5-49-11.7-67.8-30.5
			C646.5,84.9,644.5,82.7,642.5,80.3L642.5,80.3z"/>
	</g>
	<g>
		<g>
			<linearGradient id="SVGID_2_" gradientUnits="userSpaceOnUse" x1="732.6791" y1="1090.2147" x2="880.8444" y2="1090.2147">
				<stop  offset="0" style="stop-color:#7A5F41"/>
				<stop  offset="0.1753" style="stop-color:#9C622D"/>
				<stop  offset="0.3462" style="stop-color:#E4A34F"/>
				<stop  offset="0.5115" style="stop-color:#FFD076"/>
				<stop  offset="0.6694" style="stop-color:#E4A34F"/>
				<stop  offset="0.8142" style="stop-color:#9C622D"/>
				<stop  offset="1" style="stop-color:#7A5F41"/>
			</linearGradient>
			<path class="st1" d="M745.4,1037.8c13.1,24,31.5,46.9,55,67.9c24,21.5,47.7,36.3,62.1,44.3l-66.8,66.8c-15-5.7-30.8-9.5-47-11.4
				L745.4,1037.8 M732.7,950.7l5.2,264.8c21.1,1.3,41.5,6.1,60.4,14.2l82.5-82.5C880.8,1147.2,735.2,1080.2,732.7,950.7L732.7,950.7
				z"/>
		</g>
		<g>
			<linearGradient id="SVGID_3_" gradientUnits="userSpaceOnUse" x1="799.2548" y1="1072.574" x2="1006.0001" y2="1072.574">
				<stop  offset="0" style="stop-color:#7A5F41"/>
				<stop  offset="0.1753" style="stop-color:#9C622D"/>
				<stop  offset="0.3462" style="stop-color:#E4A34F"/>
				<stop  offset="0.5115" style="stop-color:#FFD076"/>
				<stop  offset="0.6694" style="stop-color:#E4A34F"/>
				<stop  offset="0.8142" style="stop-color:#9C622D"/>
				<stop  offset="1" style="stop-color:#7A5F41"/>
			</linearGradient>
			<path class="st2" d="M961.8,1050.7l-59.8,59.8c-12.5-4.9-42.9-19.2-72.3-50.8c12.4,2.4,27.8,4.3,45.9,4.3
				C903.8,1063.9,932.6,1059.4,961.8,1050.7 M1006,1022c-51.6,23.9-96.1,30.9-130.4,30.9c-48.2,0-76.4-13.8-76.4-13.8
				c45.6,66.6,105.6,84,105.6,84L1006,1022L1006,1022z"/>
		</g>
		<g>
			<linearGradient id="SVGID_4_" gradientUnits="userSpaceOnUse" x1="950.6738" y1="806.8243" x2="1229.629" y2="806.8243">
				<stop  offset="0" style="stop-color:#7A5F41"/>
				<stop  offset="0.1753" style="stop-color:#9C622D"/>
				<stop  offset="0.3462" style="stop-color:#E4A34F"/>
				<stop  offset="0.5115" style="stop-color:#FFD076"/>
				<stop  offset="0.6694" style="stop-color:#E4A34F"/>
				<stop  offset="0.8142" style="stop-color:#9C622D"/>
				<stop  offset="1" style="stop-color:#7A5F41"/>
			</linearGradient>
			<path class="st3" d="M1037.8,745.5l167.6,3.3c1.8,16.2,5.6,31.9,11.4,47l-66.8,66.8c-8-14.4-22.8-38.1-44.3-62.1
				C1084.6,777,1061.8,758.6,1037.8,745.5 M950.7,732.7c129.5,2.6,196.4,148.2,196.4,148.2l82.5-82.5c-8.1-18.9-12.9-39.3-14.2-60.4
				L950.7,732.7L950.7,732.7z"/>
		</g>
		<g>
			<linearGradient id="SVGID_5_" gradientUnits="userSpaceOnUse" x1="1021.9488" y1="902.6893" x2="1123.0739" y2="902.6893">
				<stop  offset="0" style="stop-color:#7A5F41"/>
				<stop  offset="0.1753" style="stop-color:#9C622D"/>
				<stop  offset="0.3462" style="stop-color:#E4A34F"/>
				<stop  offset="0.5115" style="stop-color:#FFD076"/>
				<stop  offset="0.6694" style="stop-color:#E4A34F"/>
				<stop  offset="0.8142" style="stop-color:#9C622D"/>
				<stop  offset="1" style="stop-color:#7A5F41"/>
			</linearGradient>
			<path class="st4" d="M1059.7,829.9c31.3,29.3,45.7,59.7,50.7,72.1l-59.7,59.7C1067.9,904.5,1065.3,859,1059.7,829.9 M1039,799.3
				c0,0,40.4,82.5-17.1,206.7l101.1-101.1C1123.1,904.9,1105.7,844.9,1039,799.3L1039,799.3z"/>
		</g>
		<g>
			<linearGradient id="SVGID_6_" gradientUnits="userSpaceOnUse" x1="765.3665" y1="888.0014" x2="1010.4708" y2="888.0014">
				<stop  offset="0" style="stop-color:#7A5F41"/>
				<stop  offset="0.1753" style="stop-color:#9C622D"/>
				<stop  offset="0.3462" style="stop-color:#E4A34F"/>
				<stop  offset="0.5115" style="stop-color:#FFD076"/>
				<stop  offset="0.6694" style="stop-color:#E4A34F"/>
				<stop  offset="0.8142" style="stop-color:#9C622D"/>
				<stop  offset="1" style="stop-color:#7A5F41"/>
			</linearGradient>
			<path class="st5" d="M930.4,776.4c16.6,0,33.2,6.3,45.9,19c50.4,50.4,3.2,184.1,3.2,184.1s-56.8,20.1-110.3,20.1
				c-28.6,0-56.2-5.7-73.8-23.3c-25.3-25.3-25.3-66.4,0-91.7c12.4-12.4,28.2-18.4,44-18.4c16.7,0,33.5,6.7,46.4,19.6
				c-25.3-25.3-26.6-65.1-1.3-90.4C897.2,782.7,913.8,776.4,930.4,776.4 M930.4,765.4c-20.3,0-39.3,7.9-53.6,22.2
				c-19.1,19.1-25.5,45.4-19.5,69.8c-5.8-1.4-11.8-2.2-17.9-2.2c-19.5,0-37.9,7.7-51.8,21.6c-29.6,29.6-29.6,77.7,0,107.3
				c17.6,17.6,45,26.5,81.6,26.5c54.8,0,111.6-19.8,114-20.7l5-1.8l1.8-5c2-5.7,48.9-140.9-5.8-195.6
				C969.7,773.3,950.7,765.4,930.4,765.4L930.4,765.4z"/>
		</g>
		<g>
			<linearGradient id="SVGID_7_" gradientUnits="userSpaceOnUse" x1="733.4501" y1="814.6025" x2="895.6808" y2="814.6025">
				<stop  offset="0" style="stop-color:#7A5F41"/>
				<stop  offset="0.1753" style="stop-color:#9C622D"/>
				<stop  offset="0.3462" style="stop-color:#E4A34F"/>
				<stop  offset="0.5115" style="stop-color:#FFD076"/>
				<stop  offset="0.6694" style="stop-color:#E4A34F"/>
				<stop  offset="0.8142" style="stop-color:#9C622D"/>
				<stop  offset="1" style="stop-color:#7A5F41"/>
			</linearGradient>
			<path class="st6" d="M847.5,745.7c-7.6,5.5-14.4,11.2-19.2,16c-11.9,11.9-19.9,26.2-23.8,42.8c-16.6,4-31,12-42.8,23.8
				c-4.8,4.8-10.5,11.6-16,19.2L748,748L847.5,745.7 M895.6,733.5L895.6,733.5L895.6,733.5z M895.6,733.5l-158.4,3.8l-3.8,158.4
				c2.3-17,22.9-46.5,36-59.5c12.7-12.7,27.9-19.6,44.4-22.3c2.6-16.5,9.6-31.7,22.2-44.4C849.1,756.5,878.6,735.9,895.6,733.5
				L895.6,733.5z"/>
		</g>
	</g>
	<g>
		<g>
			<linearGradient id="SVGID_8_" gradientUnits="userSpaceOnUse" x1="559.1398" y1="349.896" x2="707.3051" y2="349.896">
				<stop  offset="0" style="stop-color:#7A5F41"/>
				<stop  offset="0.1753" style="stop-color:#9C622D"/>
				<stop  offset="0.3462" style="stop-color:#E4A34F"/>
				<stop  offset="0.5115" style="stop-color:#FFD076"/>
				<stop  offset="0.6694" style="stop-color:#E4A34F"/>
				<stop  offset="0.8142" style="stop-color:#9C622D"/>
				<stop  offset="1" style="stop-color:#7A5F41"/>
			</linearGradient>
			<path class="st7" d="M644.3,223.3c15,5.7,30.8,9.5,47,11.4l3.3,167.6c-13.1-24-31.5-46.9-55-67.9c-24-21.5-47.7-36.3-62.1-44.3
				L644.3,223.3 M641.7,210.4l-82.5,82.5c0,0,145.6,66.9,148.2,196.4l-5.2-264.8C680.9,223.3,660.6,218.5,641.7,210.4L641.7,210.4z"
				/>
		</g>
		<g>
			<linearGradient id="SVGID_9_" gradientUnits="userSpaceOnUse" x1="433.9841" y1="367.5354" x2="640.7293" y2="367.5354">
				<stop  offset="0" style="stop-color:#7A5F41"/>
				<stop  offset="0.1753" style="stop-color:#9C622D"/>
				<stop  offset="0.3462" style="stop-color:#E4A34F"/>
				<stop  offset="0.5115" style="stop-color:#FFD076"/>
				<stop  offset="0.6694" style="stop-color:#E4A34F"/>
				<stop  offset="0.8142" style="stop-color:#9C622D"/>
				<stop  offset="1" style="stop-color:#7A5F41"/>
			</linearGradient>
			<path class="st8" d="M538,329.7c12.5,4.9,42.9,19.2,72.3,50.8c-12.4-2.4-27.8-4.3-45.9-4.3c-28.2,0-57,4.4-86.2,13.2L538,329.7
				 M535.1,317L434,418.1c51.6-23.9,96.1-30.9,130.4-30.9c48.2,0,76.4,13.8,76.4,13.8C595.1,334.4,535.1,317,535.1,317L535.1,317z"
				/>
		</g>
		<g>
			<linearGradient id="SVGID_10_" gradientUnits="userSpaceOnUse" x1="210.3551" y1="633.285" x2="489.3103" y2="633.285">
				<stop  offset="0" style="stop-color:#7A5F41"/>
				<stop  offset="0.1753" style="stop-color:#9C622D"/>
				<stop  offset="0.3462" style="stop-color:#E4A34F"/>
				<stop  offset="0.5115" style="stop-color:#FFD076"/>
				<stop  offset="0.6694" style="stop-color:#E4A34F"/>
				<stop  offset="0.8142" style="stop-color:#9C622D"/>
				<stop  offset="1" style="stop-color:#7A5F41"/>
			</linearGradient>
			<path class="st9" d="M290,577.6c8,14.4,22.8,38.1,44.3,62.1c21,23.4,43.8,41.9,67.9,55l-167.6-3.3c-1.8-16.2-5.6-31.9-11.4-47
				L290,577.6 M292.9,559.2l-82.5,82.5c8.1,18.9,12.9,39.3,14.2,60.4l264.8,5.2C359.8,704.8,292.9,559.2,292.9,559.2L292.9,559.2z"
				/>
		</g>
		<g>
			<linearGradient id="SVGID_11_" gradientUnits="userSpaceOnUse" x1="316.9102" y1="537.42" x2="418.0891" y2="537.42">
				<stop  offset="0" style="stop-color:#7A5F41"/>
				<stop  offset="0.1753" style="stop-color:#9C622D"/>
				<stop  offset="0.3462" style="stop-color:#E4A34F"/>
				<stop  offset="0.5115" style="stop-color:#FFD076"/>
				<stop  offset="0.6694" style="stop-color:#E4A34F"/>
				<stop  offset="0.8142" style="stop-color:#9C622D"/>
				<stop  offset="1" style="stop-color:#7A5F41"/>
			</linearGradient>
			<path class="st10" d="M389.4,478.3c-17.3,57.3-14.7,102.8-9.1,131.9c-31.3-29.3-45.7-59.7-50.7-72.1L389.4,478.3 M418,434
				L418,434L418,434z M418,434L316.9,535.2c0,0,17.4,60,84,105.6C401,640.8,360.6,558.2,418,434L418,434z"/>
		</g>
		<g>
			<linearGradient id="SVGID_12_" gradientUnits="userSpaceOnUse" x1="429.5133" y1="552.1079" x2="674.6526" y2="552.1079">
				<stop  offset="0" style="stop-color:#7A5F41"/>
				<stop  offset="0.1753" style="stop-color:#9C622D"/>
				<stop  offset="0.3462" style="stop-color:#E4A34F"/>
				<stop  offset="0.5115" style="stop-color:#FFD076"/>
				<stop  offset="0.6694" style="stop-color:#E4A34F"/>
				<stop  offset="0.8142" style="stop-color:#9C622D"/>
				<stop  offset="1" style="stop-color:#7A5F41"/>
			</linearGradient>
			<path class="st11" d="M570.8,440.5c28.6,0,56.2,5.7,73.8,23.3c25.3,25.3,25.3,66.4,0,91.7c-12.4,12.4-28.2,18.4-44,18.4
				c-16.7,0-33.5-6.7-46.4-19.6c25.3,25.3,26.6,65.1,1.3,90.4c-12.7,12.7-29.3,19-45.9,19c-16.6,0-33.2-6.3-45.9-19
				c-50.4-50.4-3.2-184.1-3.2-184.1S517.3,440.5,570.8,440.5 M570.8,429.5c-54.8,0-111.6,19.8-114,20.7l-5,1.8l-1.8,5
				c-2,5.7-48.9,140.9,5.8,195.6c14.3,14.3,33.4,22.2,53.6,22.2c20.3,0,39.3-7.9,53.6-22.2c14.3-14.3,22-33.2,21.6-53.2
				c-0.1-5.6-0.8-11.2-2.2-16.6c5.8,1.4,11.9,2.2,18,2.2c19.5,0,37.9-7.7,51.8-21.6c14.3-14.3,22.2-33.4,22.2-53.6
				s-7.9-39.3-22.2-53.6C634.8,438.4,607.4,429.5,570.8,429.5L570.8,429.5z"/>
		</g>
		<g>
			<linearGradient id="SVGID_13_" gradientUnits="userSpaceOnUse" x1="544.3571" y1="625.5074" x2="706.585" y2="625.5074">
				<stop  offset="0" style="stop-color:#7A5F41"/>
				<stop  offset="0.1753" style="stop-color:#9C622D"/>
				<stop  offset="0.3462" style="stop-color:#E4A34F"/>
				<stop  offset="0.5115" style="stop-color:#FFD076"/>
				<stop  offset="0.6694" style="stop-color:#E4A34F"/>
				<stop  offset="0.8142" style="stop-color:#9C622D"/>
				<stop  offset="1" style="stop-color:#7A5F41"/>
			</linearGradient>
			<path class="st12" d="M694.4,592.5l-2.4,99.5l-99.5,2.4c7.6-5.5,14.4-11.2,19.2-16c11.9-11.9,19.9-26.2,23.8-42.8
				c16.6-4,30.9-12,42.8-23.8C683.1,606.9,688.8,600.2,694.4,592.5 M706.5,544.4L706.5,544.4L706.5,544.4z M706.5,544.4
				c-2.3,17-22.9,46.5-36,59.5c-12.7,12.7-27.9,19.6-44.4,22.3c-2.6,16.5-9.6,31.7-22.2,44.4c-13,13-42.5,33.6-59.5,36l158.4-3.8
				L706.5,544.4L706.5,544.4z"/>
		</g>
	</g>
	<g>
		<g>
			<linearGradient id="SVGID_14_" gradientUnits="userSpaceOnUse" x1="950.6738" y1="633.285" x2="1229.629" y2="633.285">
				<stop  offset="0" style="stop-color:#7A5F41"/>
				<stop  offset="0.1753" style="stop-color:#9C622D"/>
				<stop  offset="0.3462" style="stop-color:#E4A34F"/>
				<stop  offset="0.5115" style="stop-color:#FFD076"/>
				<stop  offset="0.6694" style="stop-color:#E4A34F"/>
				<stop  offset="0.8142" style="stop-color:#9C622D"/>
				<stop  offset="1" style="stop-color:#7A5F41"/>
			</linearGradient>
			<path class="st13" d="M1149.9,577.6l66.8,66.8c-5.7,15-9.5,30.8-11.4,47l-167.6,3.3c24-13.1,46.9-31.5,67.9-55
				C1127.2,615.7,1141.9,592,1149.9,577.6 M1147.1,559.2c0,0-66.9,145.6-196.4,148.2l264.8-5.2c1.3-21.1,6.1-41.5,14.2-60.4
				L1147.1,559.2L1147.1,559.2z"/>
		</g>
		<g>
			<linearGradient id="SVGID_15_" gradientUnits="userSpaceOnUse" x1="1021.9488" y1="537.42" x2="1123.0739" y2="537.42">
				<stop  offset="0" style="stop-color:#7A5F41"/>
				<stop  offset="0.1753" style="stop-color:#9C622D"/>
				<stop  offset="0.3462" style="stop-color:#E4A34F"/>
				<stop  offset="0.5115" style="stop-color:#FFD076"/>
				<stop  offset="0.6694" style="stop-color:#E4A34F"/>
				<stop  offset="0.8142" style="stop-color:#9C622D"/>
				<stop  offset="1" style="stop-color:#7A5F41"/>
			</linearGradient>
			<path class="st14" d="M1050.6,478.3l59.8,59.8c-4.9,12.5-19.2,42.8-50.7,72.2C1065.3,581.2,1067.9,535.6,1050.6,478.3
				 M1021.9,434c57.4,124.2,17.1,206.7,17.1,206.7c66.6-45.6,84.1-105.6,84.1-105.6L1021.9,434L1021.9,434z"/>
		</g>
		<g>
			<linearGradient id="SVGID_16_" gradientUnits="userSpaceOnUse" x1="732.6791" y1="349.896" x2="880.8444" y2="349.896">
				<stop  offset="0" style="stop-color:#7A5F41"/>
				<stop  offset="0.1753" style="stop-color:#9C622D"/>
				<stop  offset="0.3462" style="stop-color:#E4A34F"/>
				<stop  offset="0.5115" style="stop-color:#FFD076"/>
				<stop  offset="0.6694" style="stop-color:#E4A34F"/>
				<stop  offset="0.8142" style="stop-color:#9C622D"/>
				<stop  offset="1" style="stop-color:#7A5F41"/>
			</linearGradient>
			<path class="st15" d="M795.7,223.3l66.8,66.8c-14.4,8-38.1,22.8-62.1,44.3c-23.4,21-41.9,43.8-55,67.9l3.3-167.6
				C764.9,232.9,780.6,229.1,795.7,223.3 M798.3,210.4c-18.9,8.1-39.3,12.9-60.4,14.2l-5.2,264.8c2.6-129.5,148.2-196.4,148.2-196.4
				L798.3,210.4L798.3,210.4z"/>
		</g>
		<g>
			<linearGradient id="SVGID_17_" gradientUnits="userSpaceOnUse" x1="799.2548" y1="367.5354" x2="1006.0001" y2="367.5354">
				<stop  offset="0" style="stop-color:#7A5F41"/>
				<stop  offset="0.1753" style="stop-color:#9C622D"/>
				<stop  offset="0.3462" style="stop-color:#E4A34F"/>
				<stop  offset="0.5115" style="stop-color:#FFD076"/>
				<stop  offset="0.6694" style="stop-color:#E4A34F"/>
				<stop  offset="0.8142" style="stop-color:#9C622D"/>
				<stop  offset="1" style="stop-color:#7A5F41"/>
			</linearGradient>
			<path class="st16" d="M902,329.7l59.8,59.8c-29.1-8.8-58-13.2-86.2-13.2c-18.1,0-33.5,1.8-45.9,4.2
				C859.1,349.1,889.5,334.7,902,329.7 M904.9,317c0,0-60,17.4-105.6,84c0,0,28.2-13.8,76.4-13.8c34.3,0,78.7,7,130.4,30.9
				L904.9,317L904.9,317z"/>
		</g>
		<g>
			<linearGradient id="SVGID_18_" gradientUnits="userSpaceOnUse" x1="765.3665" y1="552.1079" x2="1010.4708" y2="552.1079">
				<stop  offset="0" style="stop-color:#7A5F41"/>
				<stop  offset="0.1753" style="stop-color:#9C622D"/>
				<stop  offset="0.3462" style="stop-color:#E4A34F"/>
				<stop  offset="0.5115" style="stop-color:#FFD076"/>
				<stop  offset="0.6694" style="stop-color:#E4A34F"/>
				<stop  offset="0.8142" style="stop-color:#9C622D"/>
				<stop  offset="1" style="stop-color:#7A5F41"/>
			</linearGradient>
			<path class="st17" d="M869.1,440.5c53.5,0,110.3,20.1,110.3,20.1s47.2,133.7-3.2,184.1c-12.7,12.7-29.3,19-45.9,19
				s-33.2-6.3-45.9-19c-25.3-25.3-24.1-65.1,1.2-90.5c-13,13-29.8,19.6-46.4,19.6c-15.9,0-31.7-6-44-18.4
				c-25.3-25.3-25.3-66.4,0-91.7C812.9,446.2,840.5,440.5,869.1,440.5 M869.1,429.5c-36.5,0-64,8.9-81.6,26.5
				c-29.6,29.6-29.6,77.7,0,107.3c13.9,13.9,32.3,21.6,51.8,21.6c6.1,0,12.1-0.7,17.9-2.2c-6.1,24.4,0.4,50.7,19.5,69.8
				c14.3,14.3,33.4,22.2,53.6,22.2s39.3-7.9,53.6-22.2c54.7-54.7,7.8-189.9,5.8-195.6l-1.8-5l-5-1.8
				C980.7,449.3,923.9,429.5,869.1,429.5L869.1,429.5z"/>
		</g>
		<g>
			<linearGradient id="SVGID_19_" gradientUnits="userSpaceOnUse" x1="733.4501" y1="625.5074" x2="895.627" y2="625.5074">
				<stop  offset="0" style="stop-color:#7A5F41"/>
				<stop  offset="0.1753" style="stop-color:#9C622D"/>
				<stop  offset="0.3462" style="stop-color:#E4A34F"/>
				<stop  offset="0.5115" style="stop-color:#FFD076"/>
				<stop  offset="0.6694" style="stop-color:#E4A34F"/>
				<stop  offset="0.8142" style="stop-color:#9C622D"/>
				<stop  offset="1" style="stop-color:#7A5F41"/>
			</linearGradient>
			<path class="st18" d="M745.6,592.5c5.5,7.6,11.2,14.4,16,19.2c11.9,11.9,26.2,19.9,42.8,23.8c4,16.6,12,30.9,23.8,42.8
				c4.8,4.8,11.6,10.5,19.2,16l-99.5-2.4L745.6,592.5 M733.5,544.4l3.8,158.4l158.4,3.8c-17-2.3-46.5-22.9-59.5-36
				c-12.7-12.7-19.6-27.9-22.3-44.4c-16.5-2.6-31.7-9.6-44.4-22.2C756.4,590.9,735.8,561.4,733.5,544.4L733.5,544.4z"/>
		</g>
	</g>
	<g>
		<g>
			<linearGradient id="SVGID_20_" gradientUnits="userSpaceOnUse" x1="210.3551" y1="806.8243" x2="489.364" y2="806.8243">
				<stop  offset="0" style="stop-color:#7A5F41"/>
				<stop  offset="0.1753" style="stop-color:#9C622D"/>
				<stop  offset="0.3462" style="stop-color:#E4A34F"/>
				<stop  offset="0.5115" style="stop-color:#FFD076"/>
				<stop  offset="0.6694" style="stop-color:#E4A34F"/>
				<stop  offset="0.8142" style="stop-color:#9C622D"/>
				<stop  offset="1" style="stop-color:#7A5F41"/>
			</linearGradient>
			<path class="st19" d="M402.2,745.5c-24,13.1-46.9,31.5-67.9,55c-21.5,24-36.3,47.7-44.3,62.1l-66.8-66.8c5.7-15,9.5-30.8,11.4-47
				L402.2,745.5 M489.3,732.7L489.3,732.7L489.3,732.7z M489.3,732.7L224.5,738c-1.3,21.1-6.1,41.5-14.2,60.4l82.5,82.5
				C292.9,880.9,359.8,735.3,489.3,732.7L489.3,732.7z"/>
		</g>
		<g>
			<linearGradient id="SVGID_21_" gradientUnits="userSpaceOnUse" x1="316.9102" y1="902.6893" x2="418.0354" y2="902.6893">
				<stop  offset="0" style="stop-color:#7A5F41"/>
				<stop  offset="0.1753" style="stop-color:#9C622D"/>
				<stop  offset="0.3462" style="stop-color:#E4A34F"/>
				<stop  offset="0.5115" style="stop-color:#FFD076"/>
				<stop  offset="0.6694" style="stop-color:#E4A34F"/>
				<stop  offset="0.8142" style="stop-color:#9C622D"/>
				<stop  offset="1" style="stop-color:#7A5F41"/>
			</linearGradient>
			<path class="st20" d="M380.3,829.9c-5.6,29.1-8.2,74.6,9.1,131.9l-59.7-59.7C334.6,889.6,349,859.2,380.3,829.9 M401,799.3
				c-66.6,45.6-84,105.6-84,105.6L418,1006.1C360.6,881.9,401,799.3,401,799.3L401,799.3z"/>
		</g>
		<g>
			<linearGradient id="SVGID_22_" gradientUnits="userSpaceOnUse" x1="559.1398" y1="1090.2147" x2="707.3051" y2="1090.2147">
				<stop  offset="0" style="stop-color:#7A5F41"/>
				<stop  offset="0.1753" style="stop-color:#9C622D"/>
				<stop  offset="0.3462" style="stop-color:#E4A34F"/>
				<stop  offset="0.5115" style="stop-color:#FFD076"/>
				<stop  offset="0.6694" style="stop-color:#E4A34F"/>
				<stop  offset="0.8142" style="stop-color:#9C622D"/>
				<stop  offset="1" style="stop-color:#7A5F41"/>
			</linearGradient>
			<path class="st21" d="M694.6,1037.8l-3.3,167.6c-16.2,1.8-31.9,5.6-47,11.4l-66.8-66.8c14.4-8,38.1-22.8,62.1-44.3
				C663,1084.7,681.5,1061.9,694.6,1037.8 M707.3,950.7c-2.6,129.5-148.2,196.4-148.2,196.4l82.5,82.5c18.9-8.1,39.3-12.9,60.4-14.2
				L707.3,950.7L707.3,950.7z"/>
		</g>
		<g>
			<linearGradient id="SVGID_23_" gradientUnits="userSpaceOnUse" x1="433.9841" y1="1072.574" x2="640.7293" y2="1072.574">
				<stop  offset="0" style="stop-color:#7A5F41"/>
				<stop  offset="0.1753" style="stop-color:#9C622D"/>
				<stop  offset="0.3462" style="stop-color:#E4A34F"/>
				<stop  offset="0.5115" style="stop-color:#FFD076"/>
				<stop  offset="0.6694" style="stop-color:#E4A34F"/>
				<stop  offset="0.8142" style="stop-color:#9C622D"/>
				<stop  offset="1" style="stop-color:#7A5F41"/>
			</linearGradient>
			<path class="st22" d="M478.2,1050.7c29.1,8.8,58,13.2,86.2,13.2c18.1,0,33.5-1.8,45.9-4.2c-29.3,31.4-59.7,45.8-72.3,50.8
				L478.2,1050.7 M434,1022l101.1,101.1c0,0,60-17.4,105.6-84c0,0-28.2,13.8-76.4,13.8C530,1052.9,485.6,1045.9,434,1022L434,1022z"
				/>
		</g>
		<g>
			<linearGradient id="SVGID_24_" gradientUnits="userSpaceOnUse" x1="429.5133" y1="888.0014" x2="674.6526" y2="888.0014">
				<stop  offset="0" style="stop-color:#7A5F41"/>
				<stop  offset="0.1753" style="stop-color:#9C622D"/>
				<stop  offset="0.3462" style="stop-color:#E4A34F"/>
				<stop  offset="0.5115" style="stop-color:#FFD076"/>
				<stop  offset="0.6694" style="stop-color:#E4A34F"/>
				<stop  offset="0.8142" style="stop-color:#9C622D"/>
				<stop  offset="1" style="stop-color:#7A5F41"/>
			</linearGradient>
			<path class="st23" d="M509.6,776.4c16.6,0,33.2,6.3,45.9,19c25.3,25.3,24.1,65.1-1.2,90.5c13-13,29.8-19.6,46.4-19.6
				c15.9,0,31.7,6,44,18.4c25.3,25.3,25.3,66.4,0,91.7c-17.6,17.6-45.2,23.3-73.8,23.3c-53.5,0-110.3-20.1-110.3-20.1
				s-47.2-133.7,3.2-184.1C476.4,782.7,493,776.4,509.6,776.4 M509.6,765.4c-20.3,0-39.3,7.9-53.6,22.2
				c-54.7,54.7-7.8,189.9-5.8,195.6l1.8,5l5,1.8c2.4,0.8,59.2,20.7,114,20.7c36.5,0,64-8.9,81.6-26.5c14.3-14.3,22.2-33.4,22.2-53.6
				c0-20.3-7.9-39.3-22.2-53.6c-13.9-13.9-32.3-21.6-51.8-21.6c-6.1,0-12.1,0.7-17.9,2.2c6.1-24.4-0.4-50.7-19.5-69.8
				C548.9,773.3,529.8,765.4,509.6,765.4L509.6,765.4z"/>
		</g>
		<g>
			<linearGradient id="SVGID_25_" gradientUnits="userSpaceOnUse" x1="544.3571" y1="814.6025" x2="706.5313" y2="814.6025">
				<stop  offset="0" style="stop-color:#7A5F41"/>
				<stop  offset="0.1753" style="stop-color:#9C622D"/>
				<stop  offset="0.3462" style="stop-color:#E4A34F"/>
				<stop  offset="0.5115" style="stop-color:#FFD076"/>
				<stop  offset="0.6694" style="stop-color:#E4A34F"/>
				<stop  offset="0.8142" style="stop-color:#9C622D"/>
				<stop  offset="1" style="stop-color:#7A5F41"/>
			</linearGradient>
			<path class="st24" d="M592.5,745.7L692,748l2.4,99.5c-5.5-7.6-11.2-14.4-16-19.2c-11.9-11.9-26.2-19.9-42.8-23.8
				c-4-16.6-12-30.9-23.8-42.8C606.9,756.9,600.1,751.2,592.5,745.7 M544.4,733.5c17,2.3,46.5,22.9,59.5,36
				c12.7,12.7,19.6,27.9,22.3,44.4c16.5,2.6,31.7,9.6,44.4,22.2c13,13,33.6,42.5,36,59.5l-3.8-158.4L544.4,733.5L544.4,733.5z"/>
		</g>
	</g>
</g>
</svg>
