<?xml version="1.0" encoding="utf-8"?>
<!-- Generator: Adobe Illustrator 22.1.0, SVG Export Plug-In . SVG Version: 6.00 Build 0)  -->
<!DOCTYPE svg PUBLIC "-//W3C//DTD SVG 1.1//EN" "http://www.w3.org/Graphics/SVG/1.1/DTD/svg11.dtd">
<svg version="1.1" id="Calque_1" xmlns="http://www.w3.org/2000/svg" xmlns:xlink="http://www.w3.org/1999/xlink" x="0px" y="0px"
	 viewBox="0 0 40.5 40.1" style="enable-background:new 0 0 40.5 40.1;" xml:space="preserve">
<style type="text/css">
	.st0{fill:#CCCCCC;}
</style>
<g>
	<path class="st0" d="M37.7,35.6l-1.6,1.7l-9.5-8.8c-2.6,2.2-5.9,3.4-9.3,3.4c-8,0-14.6-6.5-14.6-14.6c0-8,6.5-14.6,14.6-14.6
		c8,0,14.6,6.5,14.6,14.6c0,2.2-0.5,4.3-1.4,6.3l-2.2-1c0.8-1.7,1.2-3.4,1.2-5.3c0-6.7-5.5-12.2-12.2-12.2S5.2,10.6,5.2,17.3
		c0,6.7,5.5,12.2,12.2,12.2c3.6,0,6.9-1.5,9.2-4.2l1.8,1.6c0,0,0,0,0,0L37.7,35.6z"/>
	<path class="st0" d="M9.6,23.1c-1.2-1.7-1.8-3.8-1.8-5.8c0-1.6,0.3-3.1,1-4.5l1.6,0.7c-0.6,1.2-0.9,2.4-0.9,3.8
		c0,1.8,0.5,3.4,1.5,4.9L9.6,23.1z"/>
</g>
</svg>
