<?xml version="1.0" encoding="utf-8"?>
<!-- Generator: Adobe Illustrator 22.1.0, SVG Export Plug-In . SVG Version: 6.00 Build 0)  -->
<!DOCTYPE svg PUBLIC "-//W3C//DTD SVG 1.1//EN" "http://www.w3.org/Graphics/SVG/1.1/DTD/svg11.dtd">
<svg version="1.1" id="Calque_1" xmlns="http://www.w3.org/2000/svg" xmlns:xlink="http://www.w3.org/1999/xlink" x="0px" y="0px"
	 viewBox="0 0 1440 1440" style="enable-background:new 0 0 1440 1440;" xml:space="preserve">
<style type="text/css">
	.st0{fill:url(#SVGID_1_);}
	.st1{fill:url(#SVGID_2_);}
	.st2{fill:url(#SVGID_3_);}
	.st3{fill:url(#SVGID_4_);}
	.st4{fill:url(#SVGID_5_);}
	.st5{fill:url(#SVGID_6_);}
	.st6{fill:url(#SVGID_7_);}
	.st7{fill:url(#SVGID_8_);}
	.st8{fill:url(#SVGID_9_);}
	.st9{fill:url(#SVGID_10_);}
	.st10{fill:url(#SVGID_11_);}
</style>
<g>
	<g>
		<g>
			<linearGradient id="SVGID_1_" gradientUnits="userSpaceOnUse" x1="109.8424" y1="979.845" x2="1396.7784" y2="432.8972">
				<stop  offset="0" style="stop-color:#7A5F41"/>
				<stop  offset="0.1753" style="stop-color:#9C622D"/>
				<stop  offset="0.3462" style="stop-color:#E4A34F"/>
				<stop  offset="0.5115" style="stop-color:#FFD076"/>
				<stop  offset="0.6694" style="stop-color:#E4A34F"/>
				<stop  offset="0.8142" style="stop-color:#9C622D"/>
				<stop  offset="1" style="stop-color:#7A5F41"/>
			</linearGradient>
			<path class="st0" d="M1356,454.3l0.1-0.1L721.4,138.7L84,454.2l0.1,0.1h-2.3l3.4,165.4l35.2,18v359.4l596.3,303.4l2-4.1l1.4,4.9
				l1.1-4.4l1.8,3.5l592.2-301.2l4.2-2.1V637.8l35.3-18.1l3.4-165.4H1356z M712.7,1281.6L135.5,988V645.4l577.2,296V1281.6z
				 M712.7,924.5L100.1,610.3l-3.1-149.7l615.8,304.8V924.5z M721.4,752.8L117.9,454.2l603.5-298.8l601.1,298.8L721.4,752.8z
				 M1304.4,988l-576.7,293.3v-340l576.7-295.8V988z M1339.9,610.3l-612.2,314V766.6l615.3-305.8L1339.9,610.3z"/>
			<linearGradient id="SVGID_2_" gradientUnits="userSpaceOnUse" x1="721.3613" y1="769.5301" x2="721.3613" y2="769.5301">
				<stop  offset="0" style="stop-color:#7A5F41"/>
				<stop  offset="0.1753" style="stop-color:#9C622D"/>
				<stop  offset="0.3462" style="stop-color:#E4A34F"/>
				<stop  offset="0.5115" style="stop-color:#FFD076"/>
				<stop  offset="0.6694" style="stop-color:#E4A34F"/>
				<stop  offset="0.8142" style="stop-color:#9C622D"/>
				<stop  offset="1" style="stop-color:#7A5F41"/>
			</linearGradient>
			<path class="st1" d="M721.4,769.5"/>
			<linearGradient id="SVGID_3_" gradientUnits="userSpaceOnUse" x1="721.408" y1="760.9111" x2="721.408" y2="760.9111">
				<stop  offset="0" style="stop-color:#7A5F41"/>
				<stop  offset="0.1753" style="stop-color:#9C622D"/>
				<stop  offset="0.3462" style="stop-color:#E4A34F"/>
				<stop  offset="0.5115" style="stop-color:#FFD076"/>
				<stop  offset="0.6694" style="stop-color:#E4A34F"/>
				<stop  offset="0.8142" style="stop-color:#9C622D"/>
				<stop  offset="1" style="stop-color:#7A5F41"/>
			</linearGradient>
			<path class="st2" d="M721.4,760.9"/>
			<linearGradient id="SVGID_4_" gradientUnits="userSpaceOnUse" x1="54.0161" y1="848.489" x2="1340.952" y2="301.5412">
				<stop  offset="0" style="stop-color:#7A5F41"/>
				<stop  offset="0.1753" style="stop-color:#9C622D"/>
				<stop  offset="0.3462" style="stop-color:#E4A34F"/>
				<stop  offset="0.5115" style="stop-color:#FFD076"/>
				<stop  offset="0.6694" style="stop-color:#E4A34F"/>
				<stop  offset="0.8142" style="stop-color:#9C622D"/>
				<stop  offset="1" style="stop-color:#7A5F41"/>
			</linearGradient>
			<line class="st3" x1="128" y1="992.6" x2="128" y2="641.6"/>
			<linearGradient id="SVGID_5_" gradientUnits="userSpaceOnUse" x1="719.6849" y1="937.0607" x2="719.6849" y2="937.0607">
				<stop  offset="0" style="stop-color:#7A5F41"/>
				<stop  offset="0.1753" style="stop-color:#9C622D"/>
				<stop  offset="0.3462" style="stop-color:#E4A34F"/>
				<stop  offset="0.5115" style="stop-color:#FFD076"/>
				<stop  offset="0.6694" style="stop-color:#E4A34F"/>
				<stop  offset="0.8142" style="stop-color:#9C622D"/>
				<stop  offset="1" style="stop-color:#7A5F41"/>
			</linearGradient>
			<path class="st4" d="M719.7,937.1"/>
			<linearGradient id="SVGID_6_" gradientUnits="userSpaceOnUse" x1="720.1912" y1="937.0607" x2="720.1912" y2="937.0607">
				<stop  offset="0" style="stop-color:#7A5F41"/>
				<stop  offset="0.1753" style="stop-color:#9C622D"/>
				<stop  offset="0.3462" style="stop-color:#E4A34F"/>
				<stop  offset="0.5115" style="stop-color:#FFD076"/>
				<stop  offset="0.6694" style="stop-color:#E4A34F"/>
				<stop  offset="0.8142" style="stop-color:#9C622D"/>
				<stop  offset="1" style="stop-color:#7A5F41"/>
			</linearGradient>
			<path class="st5" d="M720.2,937.1"/>
		</g>
		<g>
			<g>
				<linearGradient id="SVGID_7_" gradientUnits="userSpaceOnUse" x1="140.4919" y1="1051.9613" x2="1427.4279" y2="505.0135">
					<stop  offset="0" style="stop-color:#7A5F41"/>
					<stop  offset="0.1753" style="stop-color:#9C622D"/>
					<stop  offset="0.3462" style="stop-color:#E4A34F"/>
					<stop  offset="0.5115" style="stop-color:#FFD076"/>
					<stop  offset="0.6694" style="stop-color:#E4A34F"/>
					<stop  offset="0.8142" style="stop-color:#9C622D"/>
					<stop  offset="1" style="stop-color:#7A5F41"/>
				</linearGradient>
				<path class="st6" d="M539.9,984.9c-40.1-3.3-79.2-13.2-115.7-29c5-3.2,9.7-6.8,14.2-10.7c3-2.6-0.4-7.9-3.4-5.3
					c-5.6,4.8-11.6,9.1-17.7,12.9c-9.9-4.5-19.7-9.5-29.2-15c21.1-24.2,42.2-48.5,63.3-72.7c2.7-3-2-7.3-4.6-4.2
					c-21.4,24.6-42.8,49.1-64.2,73.7c-27.8-16.4-53.6-36.6-76.5-60c-2.8-2.9-7,1.8-4.2,4.7c11.3,11.5,23.3,22.3,35.9,32.2
					c-0.8,0.9-1.1,2.2-0.1,3.5c10,12.8,18.7,26.5,26.5,40.6c-11.7,13.5-23.4,26.9-35.2,40.4c-2.4,2.7,1,6.6,4,4.7
					c13.9-8.3,28.8-14.7,43.7-21.1c7.8,15.8,15.1,31.9,22.5,47.8c1.7,3.6,7.6,1.7,5.9-2c-7.5-16.1-14.8-32.3-22.7-48.3
					c12.1-5.2,24-10.7,35.3-17.4c38.1,17,79,27.7,120.9,31.1C542.6,991.4,543.9,985.3,539.9,984.9z M349.4,920.5
					c9.4,6.8,19,13.2,28.9,19.1c-3.2,3.8-6.5,7.5-9.8,11.3C362.7,940.5,356.4,930.3,349.4,920.5z M345.1,987.4
					c7.4-8.5,14.9-17.1,22.3-25.6c2.3,4.2,4.5,8.4,6.6,12.6C364.3,978.5,354.5,982.7,345.1,987.4z M379.7,971.8
					c-2.5-5.1-5.2-10.1-7.9-15.1c4-4.6,8-9.2,12-13.9c8.8,5,17.7,9.7,26.9,14C400.7,962.4,390.3,967.2,379.7,971.8z"/>
			</g>
		</g>
		<g>
			<g>
				<linearGradient id="SVGID_8_" gradientUnits="userSpaceOnUse" x1="240.5546" y1="1287.4031" x2="1527.4906" y2="740.4553">
					<stop  offset="0" style="stop-color:#7A5F41"/>
					<stop  offset="0.1753" style="stop-color:#9C622D"/>
					<stop  offset="0.3462" style="stop-color:#E4A34F"/>
					<stop  offset="0.5115" style="stop-color:#FFD076"/>
					<stop  offset="0.6694" style="stop-color:#E4A34F"/>
					<stop  offset="0.8142" style="stop-color:#9C622D"/>
					<stop  offset="1" style="stop-color:#7A5F41"/>
				</linearGradient>
				<path class="st7" d="M1169.4,872.7c-28.4,28.2-61.2,51.4-96.7,68.9c0.8-5.8,1.2-11.7,1.3-17.6c0-3.9-6.1-4.8-6.2-0.8
					c0,7.3-0.7,14.6-1.9,21.7c-9.8,4.6-19.9,8.8-30.1,12.5c-4.4-31.5-8.8-63-13.2-94.5c-0.5-4-6.7-3.2-6.2,0.8
					c4.5,31.9,9,63.9,13.4,95.8c-30.3,10.5-62.1,17.1-94.4,19.4c-4,0.3-3.2,6.4,0.8,6.2c15.9-1.1,31.8-3.3,47.4-6.4
					c0.1,1.2,1,2.3,2.6,2.3c16.1,0.7,31.9,2.9,47.6,6c2.5,17.5,4.9,35,7.4,52.5c0.5,3.5,5.5,3.5,6.1,0c2.8-15.8,7.7-31.2,12.6-46.6
					c16.9,4.2,33.6,9,50.3,13.6c3.8,1.1,6.2-4.7,2.3-5.7c-16.9-4.6-33.7-9.6-50.8-13.8c3.9-12.5,7.6-25,9.9-37.8
					c37.4-17.9,71.9-42,101.7-71.4C1176,874.9,1172.2,869.9,1169.4,872.7z M997.7,975.4c11.2-2.7,22.2-5.9,33-9.7
					c0.7,4.9,1.4,9.7,2,14.6C1021.2,978.1,1009.5,976.4,997.7,975.4z M1044.8,1021.5c-1.6-11.1-3.1-22.2-4.7-33.3
					c4.6,1,9.1,2,13.7,3.1C1050.6,1001.3,1047.4,1011.4,1044.8,1021.5z M1055.7,985.4c-5.5-1.3-10.9-2.6-16.4-3.7
					c-0.8-6-1.7-12-2.5-18c9.4-3.4,18.7-7.2,27.9-11.4C1062.3,963.5,1059.1,974.4,1055.7,985.4z"/>
			</g>
		</g>
	</g>
	<g>
		
			<linearGradient id="SVGID_9_" gradientUnits="userSpaceOnUse" x1="609.2971" y1="547.4284" x2="1919.3591" y2="-40.8067" gradientTransform="matrix(1.1005 -4.019986e-03 0.114 0.9591 -798.9818 270.9886)">
			<stop  offset="0" style="stop-color:#7A5F41"/>
			<stop  offset="0.1753" style="stop-color:#9C622D"/>
			<stop  offset="0.3462" style="stop-color:#E4A34F"/>
			<stop  offset="0.5115" style="stop-color:#FFD076"/>
			<stop  offset="0.6694" style="stop-color:#E4A34F"/>
			<stop  offset="0.8142" style="stop-color:#9C622D"/>
			<stop  offset="1" style="stop-color:#7A5F41"/>
		</linearGradient>
		<path class="st8" d="M705.5,546.7l33.8,18.4l-25.7,14.7l-33.8-18.4L605.1,604l-30-16.3l-95.9-124.6l28.5-16.3l96.2,124.5
			l45.9-26.2l-52.4-28.5l25.7-14.7l52.4,28.5l19.7-11.2l30,16.3L705.5,546.7z"/>
		
			<linearGradient id="SVGID_10_" gradientUnits="userSpaceOnUse" x1="602.7066" y1="532.7506" x2="1912.7686" y2="-55.4845" gradientTransform="matrix(1.1005 -4.019986e-03 0.114 0.9591 -798.9818 270.9886)">
			<stop  offset="0" style="stop-color:#7A5F41"/>
			<stop  offset="0.1753" style="stop-color:#9C622D"/>
			<stop  offset="0.3462" style="stop-color:#E4A34F"/>
			<stop  offset="0.5115" style="stop-color:#FFD076"/>
			<stop  offset="0.6694" style="stop-color:#E4A34F"/>
			<stop  offset="0.8142" style="stop-color:#9C622D"/>
			<stop  offset="1" style="stop-color:#7A5F41"/>
		</linearGradient>
		<path class="st9" d="M853.7,459.6c5.1,6.1,8,12.1,8.5,18.2c0.5,6-1.3,11.8-5.2,17.4c-4,5.5-9.9,10.6-17.9,15.1
			c-8,4.5-16.9,8-26.7,10.3c-9.9,2.3-20.2,3.4-31,3.3c-10.8-0.2-21.7-1.6-32.8-4.4c-11-2.7-21.6-6.8-31.7-12.3
			c-6.7-3.7-12.1-7.4-16.1-11.2c-4-3.8-7-7.5-9-11.2c-2-3.7-3.1-7.3-3.3-10.8c-0.2-3.5,0.1-6.8,1.1-10c-10.5,1.1-21.9,0.7-34.2-1.1
			c-12.3-1.8-24.5-5.9-36.5-12.4c-9.5-5.1-16.6-10.6-21.4-16.3s-7.5-11.4-8.2-17.1c-0.6-5.7,0.8-11.3,4.3-16.6
			c3.6-5.3,9.1-10.1,16.7-14.5c7.4-4.2,15.9-7.4,25.4-9.6c9.5-2.1,19.5-3.1,29.9-3s20.8,1.5,31.1,4c10.3,2.5,20.2,6.4,29.7,11.5
			c12,6.5,19.7,13.2,23.2,20c3.5,6.8,4.4,13.1,2.8,19c5.6-0.6,11.6-0.9,17.9-0.9c6.3,0.1,12.7,0.6,19.4,1.6c6.7,1,13.4,2.6,20.4,4.7
			c7,2.1,13.8,5,20.5,8.7C840.8,447.7,848.5,453.5,853.7,459.6z M786.4,450.5c-6.1-1.6-12.2-2.5-18.3-2.7s-12,0.1-17.6,1.1
			c-5.6,1-10.6,2.7-14.9,5.2c-4.3,2.5-7.3,5.3-9.1,8.5c-1.7,3.2-2.2,6.5-1.6,9.8c0.7,3.4,2.5,6.7,5.5,10.1c3,3.3,7.1,6.5,12.4,9.3
			c5.2,2.8,10.9,5.1,17,6.6c6.1,1.6,12.2,2.5,18.2,2.8c6,0.3,11.9-0.1,17.5-1.2c5.6-1.1,10.6-2.9,14.9-5.3c4.3-2.5,7.4-5.3,9.1-8.4
			s2.3-6.4,1.7-9.8s-2.4-6.8-5.4-10.1c-3-3.3-7.1-6.5-12.3-9.3C798.1,454.3,792.5,452.1,786.4,450.5z M668.8,395.7
			c-11.6-0.6-21.5,1.4-29.6,6s-11.4,10.2-9.9,16.6c1.5,6.4,7.2,12.3,17.1,17.7c10.1,5.5,20.8,8.5,32.1,9.1
			c11.3,0.6,21.1-1.5,29.2-6.1c8.1-4.6,11.6-10.1,10.4-16.5c-1.2-6.3-6.9-12.3-17-17.7C691.2,399.4,680.4,396.4,668.8,395.7z"/>
		
			<linearGradient id="SVGID_11_" gradientUnits="userSpaceOnUse" x1="596.6907" y1="519.3525" x2="1906.7527" y2="-68.8825" gradientTransform="matrix(1.1005 -4.019986e-03 0.114 0.9591 -798.9818 270.9886)">
			<stop  offset="0" style="stop-color:#7A5F41"/>
			<stop  offset="0.1753" style="stop-color:#9C622D"/>
			<stop  offset="0.3462" style="stop-color:#E4A34F"/>
			<stop  offset="0.5115" style="stop-color:#FFD076"/>
			<stop  offset="0.6694" style="stop-color:#E4A34F"/>
			<stop  offset="0.8142" style="stop-color:#9C622D"/>
			<stop  offset="1" style="stop-color:#7A5F41"/>
		</linearGradient>
		<path class="st10" d="M1007.1,412.4L908.9,359c-12.2-6.6-23.6-10-34.3-10.1c-10.7-0.1-19.7,1.9-27.2,6.2
			c-7.4,4.2-10.9,9.4-10.4,15.4c0.5,6,6.7,12.3,18.7,18.8l98.2,53.3l-26.5,15.1L702.6,335.7l26.5-15.1l80.8,43.9
			c-1.6-5.9-1-11.3,1.9-16.2c2.9-4.9,7.6-9.2,14.1-13c7.3-4.1,15.2-7.1,23.7-8.8c8.6-1.7,17.3-2.3,26.4-1.7
			c9.1,0.6,18.2,2.3,27.5,5.1c9.3,2.8,18.2,6.6,26.8,11.3l103.2,56.1L1007.1,412.4z"/>
	</g>
</g>
</svg>
