<?xml version="1.0" encoding="utf-8"?>
<!-- Generator: Adobe Illustrator 22.1.0, SVG Export Plug-In . SVG Version: 6.00 Build 0)  -->
<!DOCTYPE svg PUBLIC "-//W3C//DTD SVG 1.1//EN" "http://www.w3.org/Graphics/SVG/1.1/DTD/svg11.dtd">
<svg version="1.1" id="Calque_1" xmlns="http://www.w3.org/2000/svg" xmlns:xlink="http://www.w3.org/1999/xlink" x="0px" y="0px"
	 viewBox="0 0 17.5 22.5" style="enable-background:new 0 0 17.5 22.5;" xml:space="preserve">
<style type="text/css">
	.st0{fill:#FFFFFF;stroke:#FFFFFF;stroke-width:0.4301;stroke-miterlimit:10;}
</style>
<g>
	<g>
		<path class="st0" d="M16.1,17.9l-1.2-13h-2.8C12,3.2,10.5,1.8,8.8,1.8S5.6,3.2,5.4,4.9H2.6l-1.2,13c0,0.7,0.2,1.4,0.7,1.9
			c0.5,0.5,1.1,0.8,1.8,0.8h9.7c0.7,0,1.4-0.3,1.8-0.8C15.9,19.3,16.2,18.6,16.1,17.9z M8.8,2.5c1.4,0,2.5,1.1,2.7,2.4H6.1
			C6.2,3.5,7.4,2.5,8.8,2.5z M15,19.4c-0.4,0.4-0.8,0.6-1.3,0.6H3.9c-0.5,0-1-0.2-1.4-0.6C2.2,19,2.1,18.5,2.1,18L3.2,5.6h11.1
			L15.4,18C15.5,18.5,15.3,19,15,19.4z"/>
	</g>
</g>
</svg>
