<?xml version="1.0" encoding="utf-8"?>
<!-- Generator: Adobe Illustrator 22.1.0, SVG Export Plug-In . SVG Version: 6.00 Build 0)  -->
<!DOCTYPE svg PUBLIC "-//W3C//DTD SVG 1.1//EN" "http://www.w3.org/Graphics/SVG/1.1/DTD/svg11.dtd">
<svg version="1.1" id="Calque_1" xmlns="http://www.w3.org/2000/svg" xmlns:xlink="http://www.w3.org/1999/xlink" x="0px" y="0px"
	 viewBox="0 0 1440 1440" style="enable-background:new 0 0 1440 1440;" xml:space="preserve">
<style type="text/css">
	.st0{fill:url(#SVGID_1_);}
	.st1{fill:url(#SVGID_2_);}
	.st2{fill:url(#SVGID_3_);}
	.st3{fill:url(#SVGID_4_);}
</style>
<g>
	<g>
		<g>
			<g>
				<g>
					<linearGradient id="SVGID_1_" gradientUnits="userSpaceOnUse" x1="413.5168" y1="1352.9576" x2="1008.9556" y2="77.0173">
						<stop  offset="0" style="stop-color:#7A5F41"/>
						<stop  offset="0.1753" style="stop-color:#9C622D"/>
						<stop  offset="0.3462" style="stop-color:#E4A34F"/>
						<stop  offset="0.5115" style="stop-color:#FFD076"/>
						<stop  offset="0.6694" style="stop-color:#E4A34F"/>
						<stop  offset="0.8142" style="stop-color:#9C622D"/>
						<stop  offset="1" style="stop-color:#7A5F41"/>
					</linearGradient>
					<path class="st0" d="M1163.5,818.5V764c0-155.8-126.8-282.6-282.6-282.6c-96,0-185.7,49.3-237.5,129.6l39.7-177.4
						c12.7-56.6,0.2-115.1-34.3-161.3c23.4,4.9,47.4,7.5,71.5,7.5h119.7V175.7H720.2c-46.9,0-92.4-13.8-131.5-40.1l-82.6-55.3
						l-49.3,73.5l-8.8,13l38.7,25.8h-6.4c-35.5,0-66.7,25.1-74.5,59.8l-61,66.6l-24.1,26.1h86.8l-84.8,84.9l73.6,73.6L520,380.1
						c1.1,10.9-2.7,21.2-11.1,29.5L338.4,580c-39.7,39.7-64.7,92.2-70.6,148c-6.1,55.7,7.5,112.3,37.8,159.6l237.1,368.1h-43.9
						v104.1h322.5v-104.1h-75.3l-26.4-125.5c-4.8-22.8,0.9-46.3,15.6-64.6c14.7-18.3,36.6-28.7,60.1-28.7
						c42.6,0,77.3,34.7,77.3,77.3v95h80.9l22.7-31.2c18-24.7,39.9-54.8,51-70.1l33.8,11.3l12.4,4.1l75.2-139.9
						C1175.7,933.1,1181.1,872.9,1163.5,818.5z M1021.9,1087l-1.9-0.6l-1,1.7c-1.4,2.2-49,67.7-74.8,102.9h-53.5v-76.8
						c0-52.7-42.8-95.5-95.5-95.5c-29,0-56,12.9-74.1,35.3c-18.3,22.4-25.3,51.6-19.3,79.8l29.4,139.9h71.9v67.7H516.9v-67.7h59.1
						L320.8,877.6c-28.1-43.6-40.6-96.1-35-147.7c5.4-51.7,28.8-100.3,65.5-137.1l170.5-170.5c16.5-16.6,21-39.3,12-60.8
						c-1.5-3.8-3.4-7.4-5.9-11l-1.8-2.5L396.4,478.1l-47.9-47.9l102.9-103h-89.2l60.7-66.2l0.1-0.7c4.2-28.2,29-49.4,57.4-49.4h9.9
						c24.5,0,48.3,4.8,70.8,14.5l2.2-4.5c-7.7-4.2-15.2-8.9-22.5-13.8l-67.4-45.2l37.6-56.2l67.4,45.2c42.1,28.2,91,43.1,141.7,43.1
						h101.5v67.7H720.2c-47.2,0-92.9-10-135.4-29.9l-2.4,4.4c18.4,11,34.5,25.1,48,42c34.3,42.8,47,98,35,151.5l-55.9,249.5
						c-2.7,12.1,0,24.7,7.5,34.5l3.4,4.4l1.1-5.5C645.9,589.2,755,499.6,880.9,499.6c145.8,0,264.4,118.6,264.4,264.4v57l0.1,0.8
						c17.1,50.3,12.4,106.1-12.8,153l-67.9,126.5L1021.9,1087z"/>
				</g>
			</g>
		</g>
	</g>
	<linearGradient id="SVGID_2_" gradientUnits="userSpaceOnUse" x1="437.5685" y1="1364.1818" x2="1033.0073" y2="88.2414">
		<stop  offset="0" style="stop-color:#7A5F41"/>
		<stop  offset="0.1753" style="stop-color:#9C622D"/>
		<stop  offset="0.3462" style="stop-color:#E4A34F"/>
		<stop  offset="0.5115" style="stop-color:#FFD076"/>
		<stop  offset="0.6694" style="stop-color:#E4A34F"/>
		<stop  offset="0.8142" style="stop-color:#9C622D"/>
		<stop  offset="1" style="stop-color:#7A5F41"/>
	</linearGradient>
	<path class="st1" d="M657.4,765.6c-0.8,0-1.6-0.1-2.4-0.3c-4.9-1.3-7.8-6.4-6.5-11.3c0.6-2,57.5-202.4,233-207
		c4.8-0.7,9.3,3.9,9.5,9c0.1,5.1-3.9,9.3-9,9.5c-162,4.3-215.2,191.6-215.7,193.5C665.2,762.9,661.5,765.6,657.4,765.6z"/>
	<linearGradient id="SVGID_3_" gradientUnits="userSpaceOnUse" x1="383.8388" y1="1339.1079" x2="979.2776" y2="63.1676">
		<stop  offset="0" style="stop-color:#7A5F41"/>
		<stop  offset="0.1753" style="stop-color:#9C622D"/>
		<stop  offset="0.3462" style="stop-color:#E4A34F"/>
		<stop  offset="0.5115" style="stop-color:#FFD076"/>
		<stop  offset="0.6694" style="stop-color:#E4A34F"/>
		<stop  offset="0.8142" style="stop-color:#9C622D"/>
		<stop  offset="1" style="stop-color:#7A5F41"/>
	</linearGradient>
	<path class="st2" d="M599.5,1232.5c-3,0-6-1.5-7.8-4.3L404.8,936.2c-2.7-4.3-1.5-10,2.8-12.7c4.3-2.8,10-1.5,12.7,2.8l186.9,292.1
		c2.7,4.3,1.5,10-2.8,12.7C602.9,1232,601.2,1232.5,599.5,1232.5z"/>
	<linearGradient id="SVGID_4_" gradientUnits="userSpaceOnUse" x1="210.5573" y1="1258.2432" x2="805.9961" y2="-17.6972">
		<stop  offset="0" style="stop-color:#7A5F41"/>
		<stop  offset="0.1753" style="stop-color:#9C622D"/>
		<stop  offset="0.3462" style="stop-color:#E4A34F"/>
		<stop  offset="0.5115" style="stop-color:#FFD076"/>
		<stop  offset="0.6694" style="stop-color:#E4A34F"/>
		<stop  offset="0.8142" style="stop-color:#9C622D"/>
		<stop  offset="1" style="stop-color:#7A5F41"/>
	</linearGradient>
	<path class="st3" d="M395.4,913.5c-3,0-6-1.5-7.8-4.3l-22.7-35.4c-2.7-4.3-1.5-10,2.8-12.7c4.3-2.8,10-1.5,12.7,2.8l22.7,35.4
		c2.7,4.3,1.5,10-2.8,12.7C398.8,913.1,397,913.5,395.4,913.5z"/>
</g>
</svg>
