<?xml version="1.0" encoding="utf-8"?>
<!-- Generator: Adobe Illustrator 22.1.0, SVG Export Plug-In . SVG Version: 6.00 Build 0)  -->
<!DOCTYPE svg PUBLIC "-//W3C//DTD SVG 1.1//EN" "http://www.w3.org/Graphics/SVG/1.1/DTD/svg11.dtd">
<svg version="1.1" id="Calque_1" xmlns="http://www.w3.org/2000/svg" xmlns:xlink="http://www.w3.org/1999/xlink" x="0px" y="0px"
	 viewBox="0 0 1440 1440" style="enable-background:new 0 0 1440 1440;" xml:space="preserve">
<style type="text/css">
	.st0{fill:url(#SVGID_1_);}
	.st1{fill:url(#SVGID_2_);}
	.st2{fill:url(#SVGID_3_);}
	.st3{fill:url(#SVGID_4_);}
</style>
<g>
	<g>
		<g>
			<g>
				<linearGradient id="SVGID_1_" gradientUnits="userSpaceOnUse" x1="370.9459" y1="1341.6101" x2="1248.5354" y2="168.204">
					<stop  offset="0" style="stop-color:#7A5F41"/>
					<stop  offset="0.1753" style="stop-color:#9C622D"/>
					<stop  offset="0.3462" style="stop-color:#E4A34F"/>
					<stop  offset="0.5115" style="stop-color:#FFD076"/>
					<stop  offset="0.6694" style="stop-color:#E4A34F"/>
					<stop  offset="0.8142" style="stop-color:#9C622D"/>
					<stop  offset="1" style="stop-color:#7A5F41"/>
				</linearGradient>
				<path class="st0" d="M1244,1223l-169.7-409.7c-1.3-3.2-3.8-5.8-7.1-7.1c-3.2-1.5-6.8-1.5-10,0c-3.2,1.3-5.8,3.8-7.1,7.1
					c-1.3,3.2-1.3,6.8,0,10l159.2,384.5l-154.7-44.8c-5.9-1.6-12.1,0.9-15,6.3l-77.7,141.1l-174-420l8.8-1.8
					c190-36.6,328-203.8,328-397.5C1124.9,268,943.2,86.3,720,86.3S315.1,268,315.1,491.2c0,87.7,27.7,171.2,80.1,241.5l2.5,3.2
					L196,1223c-1.9,4.6-1,10,2.4,13.7c3.2,3.7,8.6,5.3,13.4,3.8l170.7-49.4l85.8,155.7c2.2,4.1,6.6,6.8,11.5,6.8
					c5.6-0.3,10-3.4,11.9-8.1l158.6-382.9c1.3-3.2,1.3-6.8,0-10c-1.3-3.1-3.8-5.6-7.1-7.1c-6.6-2.7-14.3,0.4-17.1,7.1l-148.2,357.8
					l-77.7-141.1c-2.9-5.5-9.1-8-15-6.3l-154.8,44.8l186.1-448.8l7.8,8.4C500.8,849.2,608.5,896,720,896c11.6,0,23.6-0.6,35.7-1.6
					l5.5-0.4l186.9,451.6c1.9,4.7,6.5,7.8,11.5,8.1c5.5,0,9.9-2.7,12.1-6.8l85.8-155.7l170.7,49.4c5,1.5,10.2-0.1,13.4-3.8
					C1245,1233.1,1245.9,1227.6,1244,1223z M720,869.9c-208.8,0-378.6-170-378.6-378.8c0-208.8,169.8-378.8,378.6-378.8
					s378.6,170,378.6,378.8C1098.6,700,928.8,869.9,720,869.9z"/>
			</g>
		</g>
		<g>
			<linearGradient id="SVGID_2_" gradientUnits="userSpaceOnUse" x1="186.8817" y1="1203.9486" x2="1064.4712" y2="30.5425">
				<stop  offset="0" style="stop-color:#7A5F41"/>
				<stop  offset="0.1753" style="stop-color:#9C622D"/>
				<stop  offset="0.3462" style="stop-color:#E4A34F"/>
				<stop  offset="0.5115" style="stop-color:#FFD076"/>
				<stop  offset="0.6694" style="stop-color:#E4A34F"/>
				<stop  offset="0.8142" style="stop-color:#9C622D"/>
				<stop  offset="1" style="stop-color:#7A5F41"/>
			</linearGradient>
			<path class="st1" d="M1029,519.2h-0.1c-7.1-1-13.7,4-14.6,11.2C994.8,677.2,868.3,788,720,788c-163.7,0-296.8-133.1-296.8-296.8
				S556.3,194.4,720,194.4c148.3,0,274.8,110.7,294.3,257.6c0.4,3.5,2.2,6.6,5,8.7c2.8,2.1,6.2,3.1,9.6,2.7
				c7.2-1,12.2-7.7,11.4-14.7C1019,288.8,881.4,168.2,720,168.2c-178.1,0-323,144.9-323,323s144.9,323,323,323
				c161.4,0,299-120.6,320.2-280.4C1041.1,526.7,1036.1,520.1,1029,519.2z"/>
			<linearGradient id="SVGID_3_" gradientUnits="userSpaceOnUse" x1="186.8817" y1="1203.9486" x2="1064.4712" y2="30.5425">
				<stop  offset="0" style="stop-color:#7A5F41"/>
				<stop  offset="0.1753" style="stop-color:#9C622D"/>
				<stop  offset="0.3462" style="stop-color:#E4A34F"/>
				<stop  offset="0.5115" style="stop-color:#FFD076"/>
				<stop  offset="0.6694" style="stop-color:#E4A34F"/>
				<stop  offset="0.8142" style="stop-color:#9C622D"/>
				<stop  offset="1" style="stop-color:#7A5F41"/>
			</linearGradient>
			<path class="st2" d="M720,814.2c-178.1,0-323-144.9-323-323s144.9-323,323-323c161.4,0,299,120.6,320.2,280.4
				c0.9,7.1-4.1,13.7-11.4,14.7c-3.4,0.4-6.8-0.6-9.6-2.7c-2.8-2.1-4.6-5.2-5-8.7c-19.5-146.8-146-257.6-294.3-257.6
				c-163.7,0-296.8,133.1-296.8,296.8S556.3,788,720,788c148.3,0,274.8-110.7,294.3-257.6c0.9-7.2,7.5-12.2,14.6-11.2h0.1
				c7.1,0.9,12.1,7.5,11.2,14.6C1019,693.6,881.4,814.2,720,814.2z"/>
		</g>
	</g>
	<g>
		<g>
			<linearGradient id="SVGID_4_" gradientUnits="userSpaceOnUse" x1="189.1723" y1="1205.6619" x2="1066.7618" y2="32.2556">
				<stop  offset="0" style="stop-color:#7A5F41"/>
				<stop  offset="0.1753" style="stop-color:#9C622D"/>
				<stop  offset="0.3462" style="stop-color:#E4A34F"/>
				<stop  offset="0.5115" style="stop-color:#FFD076"/>
				<stop  offset="0.6694" style="stop-color:#E4A34F"/>
				<stop  offset="0.8142" style="stop-color:#9C622D"/>
				<stop  offset="1" style="stop-color:#7A5F41"/>
			</linearGradient>
			<path class="st3" d="M922.1,513.8c-58.8,7.5-118.1,5.2-175.6-6.3c6.2-6.1,12-12.6,17.4-19.5c3.6-4.6-2.9-11.1-6.5-6.5
				c-6.6,8.6-14,16.4-21.7,23.8c-15.7-3.5-31.3-7.6-46.6-12.5c23.2-40.9,46.4-81.9,69.6-122.8c3-5.1-5-9.8-7.9-4.6
				c-23.5,41.5-47,83-70.5,124.6c-45.1-15-88.3-35.9-128.3-62.3c-5-3.3-9.5,4.7-4.7,7.9c19.7,13,40.3,24.8,61.4,35.1
				c-0.9,1.6-0.9,3.5,0.9,5.1c18.2,15.2,34.8,32.1,50.4,49.9c-12.9,22.8-25.7,45.5-38.6,68.3c-2.6,4.6,3.4,9.1,7.2,5.5
				c17.5-16.1,37.2-29.7,56.7-43.4c16,20.1,31.3,40.9,46.8,61.3c3.5,4.7,11.5,0.1,7.9-4.6c-15.6-20.6-31-41.6-47.2-62
				c15.8-11.1,31.5-22.5,45.7-35.5c60.1,12.7,122.3,15.5,183.7,7.7C927.8,522.3,927.9,513.1,922.1,513.8z M628,479.7
				c15.6,6.9,31.4,13,47.4,18.4c-3.6,6.3-7.2,12.7-10.8,19C653.1,504.1,641,491.5,628,479.7z M641.8,576.2
				c8.1-14.4,16.3-28.8,24.5-43.3c4.5,5.2,8.9,10.6,13.2,16C666.8,557.8,654,566.7,641.8,576.2z M687,543.6
				c-5.2-6.5-10.5-12.9-15.9-19.2c4.4-7.8,8.8-15.6,13.2-23.4c14.2,4.5,28.5,8.4,43,11.8C714.6,523.9,700.9,533.8,687,543.6z"/>
		</g>
	</g>
</g>
</svg>
