<?xml version="1.0" encoding="utf-8"?>
<!-- Generator: Adobe Illustrator 22.1.0, SVG Export Plug-In . SVG Version: 6.00 Build 0)  -->
<!DOCTYPE svg PUBLIC "-//W3C//DTD SVG 1.1//EN" "http://www.w3.org/Graphics/SVG/1.1/DTD/svg11.dtd">
<svg version="1.1" id="Calque_1" xmlns="http://www.w3.org/2000/svg" xmlns:xlink="http://www.w3.org/1999/xlink" x="0px" y="0px"
	 viewBox="0 0 339.3 67.8" style="enable-background:new 0 0 339.3 67.8;" xml:space="preserve">
<style type="text/css">
	.st0{fill:url(#SVGID_1_);}
</style>
<g>
	<g>
		<g>
			<linearGradient id="SVGID_1_" gradientUnits="userSpaceOnUse" x1="83.3535" y1="25.6131" x2="17.4977" y2="25.6131">
				<stop  offset="0" style="stop-color:#7A5F41"/>
				<stop  offset="0.1753" style="stop-color:#9C622D"/>
				<stop  offset="0.2889" style="stop-color:#CC8D44"/>
				<stop  offset="0.3462" style="stop-color:#E4A34F"/>
				<stop  offset="0.5115" style="stop-color:#FFD076"/>
				<stop  offset="0.6694" style="stop-color:#E4A34F"/>
				<stop  offset="0.8142" style="stop-color:#9C622D"/>
				<stop  offset="1" style="stop-color:#7A5F41"/>
			</linearGradient>
			<path class="st0" d="M82.6,29.5c-10.1,1.3-20.4,0.9-30.3-1.1c1.1-1.1,2.1-2.2,3-3.4c0.6-0.8-0.5-1.9-1.1-1.1
				c-1.1,1.5-2.4,2.8-3.7,4.1c-2.7-0.6-5.4-1.3-8.1-2.2c4-7.1,8-14.1,12-21.2C54.9,3.8,53.5,3,53,3.9c-4.1,7.2-8.1,14.3-12.2,21.5
				c-7.8-2.6-15.2-6.2-22.2-10.8c-0.9-0.6-1.6,0.8-0.8,1.4c3.4,2.3,7,4.3,10.6,6.1c-0.2,0.3-0.2,0.6,0.2,0.9c3.2,2.6,6,5.5,8.7,8.6
				c-2.2,3.9-4.4,7.9-6.7,11.8c-0.5,0.8,0.6,1.6,1.2,1c3-2.8,6.4-5.1,9.8-7.5c2.8,3.5,5.4,7.1,8.1,10.6c0.6,0.8,2,0,1.4-0.8
				c-2.7-3.6-5.4-7.2-8.1-10.7c2.7-1.9,5.4-3.9,7.9-6.1C61.2,32,72,32.5,82.6,31.1C83.6,31,83.6,29.4,82.6,29.5z M31.8,23.6
				c2.7,1.2,5.4,2.3,8.2,3.2c-0.6,1.1-1.2,2.2-1.9,3.3C36.2,27.8,34.1,25.7,31.8,23.6z M34.2,40.3c1.4-2.5,2.8-5,4.2-7.5
				c0.8,0.9,1.5,1.8,2.3,2.8C38.5,37.1,36.3,38.7,34.2,40.3z M42,34.7c-0.9-1.1-1.8-2.2-2.7-3.3c0.8-1.3,1.5-2.7,2.3-4
				c2.4,0.8,4.9,1.5,7.4,2C46.8,31.3,44.4,33,42,34.7z"/>
		</g>
	</g>
	<g>
		<path d="M106.6,42.9c-1.6,0.6-4.7,1.6-9.1,1.6c-4.2,0-6.7-0.8-6.7-2.1c0-1.2,2.1-1.9,5.9-1.9c3.7,0,5.2,0.6,8.8,1.3l1.2,0.3
			c3.5-1.5,7.2-5.6,12.3-13l3.1-4.5c-7.7-0.1-12.5-3-12.5-7.4c0-4.1,3.9-7.3,8.7-7.3c1.7,0,2.6,0.3,4.5,1.4l-0.2,0.3
			c-1-0.4-1.7-1.2-4.2-1.2c-4.4,0-7.8,2.9-7.8,6.8c0,4.3,4.3,6.9,11.4,6.9h0.4l0.6-0.7c6.2-7.5,12.9-13,18.4-13
			c2.4,0,3.9,1.1,3.9,2.9c0,4.4-9,8.6-14.5,10.1c-2.2,0.6-3.3,0.8-6.1,1.1l-3.1,4.8c-6.5,10.4-13.7,13.3-13.7,13.3
			c0.9,0.2,5.2,1.4,8.6,1.4c7.1,0,13.2-4,13.2-8.7c0-0.6-0.1-1-0.4-1.6l0.3-0.2c0.4,0.6,0.5,1,0.5,1.9c0,5.2-6.6,9.4-14.6,9.4
			c-1.8,0-3.5-0.2-5.8-0.9L106.6,42.9L106.6,42.9z M91.9,42.5c0,1.1,1.8,1.6,5.5,1.6c3.1,0,5.9-0.5,8.4-1.5
			c-3.1-1.1-6.2-1.6-9.3-1.6C93.6,41,91.9,41.6,91.9,42.5z M124.9,23.7c1.8-0.3,5.6-0.5,11-3.2c5.2-2.6,8.3-5.5,8.3-7.7
			c0-1.4-0.9-2.1-2.7-2.1c-3.5,0-6.9,1.8-11,5.8C129.8,17.1,127.6,19.2,124.9,23.7L124.9,23.7z"/>
		<path d="M130.8,44.2c-1.2,0-1.8-0.5-1.8-1.4c0-0.8,0.4-1.7,1.3-2.6c1.3-1.3,3.3-2.3,4.6-2.3c0.6,0,1,0.2,1,0.6
			c0,0.9-0.7,1.5-4.8,3.5c0,0.2-0.1,0.3-0.1,0.5c0,0.6,0.3,0.9,1,0.9c1.2,0,3.2-1.3,5.1-3l0.3,0.5C136,41.8,133,44.2,130.8,44.2z
			 M134.3,38.4c-0.6,0-1.9,1.2-2.7,2.5c1.9-0.8,3-1.6,3-2.2C134.6,38.6,134.5,38.4,134.3,38.4z"/>
		<path d="M157.2,43.9l-2.4,3.4c-1.1,1.6-2.3,3.4-3.8,5.2c-6.9,8.9-12.9,11.8-16.1,11.8c-2.3,0-3.8-1.2-3.8-3.2
			c0-2.9,2.6-6.1,7.7-9.4c5.9-3.8,9.4-5.1,16-7.8l6.2-10.6c-3.3-1.1-4.6-2.7-4.6-5.5c0-2.8,2-6.3,5.2-9c3.7-3.1,8.2-4.7,14.5-5.1
			c1.9-1.2,3.6-1.9,4.4-1.9c0.3,0,0.6,0.1,0.6,0.5c0,0.8-2.4,1.8-4.9,1.9c-0.5,0.3-1.1,0.5-2.6,2.3c-0.9,1.1-2.1,2.7-3.7,5.2
			c1.9,0.7,2.7,1.7,2.7,3.6c0,4.2-4.4,8.1-9.5,8.4l-5.6,9.7c2.2-0.8,3.7-1.6,5.1-3l0.3,0.5C162,41.6,159.9,43.2,157.2,43.9z
			 M140,52.2c-4.7,3.3-7.5,6.8-7.5,9.4c0,1.4,1,2.2,2.6,2.2c7.8,0,17.1-15.3,19.4-19.1C148.1,47.2,141.9,50.8,140,52.2z M175.3,14.3
			c-0.8,0.1-1.5,0.2-1.9,0.3c-10,1.4-15.6,8.1-15.6,13.5c0,2.5,1,3.9,3.5,4.7l3.3-5.6c1.2-1.9,1.9-2.9,3.6-5.3
			c-1.5,0-2.4,0.5-3.8,1.9l-0.2-0.2c1.1-1.4,2.3-2.1,3.9-2.1h0.4C168.6,21.4,173.3,15.5,175.3,14.3z M171.5,24.8
			c0-1.5-0.6-2.3-1.8-2.8c-1.3,2.2-1.9,3-3.2,5.4l-3.1,5.6c2.3-0.1,3.3-0.5,4.8-1.7C170.1,29.8,171.5,27.1,171.5,24.8z"/>
		<path d="M166.4,44.2c-0.6,0-1-0.3-1-0.7c0-0.2,0.1-0.3,0.2-0.6c-1.3,1-2.2,1.3-3,1.3c-0.7,0-1.2-0.5-1.2-1.3c0-0.8,0.6-2,1.6-3
			c1.2-1.2,3.1-2.1,4.2-2.1c0.6,0,1,0.3,1,0.8c0,0.1,0,0.3,0,0.6l1.2-1.2h1.3l-3,4.2c-0.3,0.5-0.5,0.6-0.5,0.9
			c0,0.2,0.2,0.3,0.4,0.3c0.9,0,3.2-1.4,4.9-3l0.3,0.5C172.7,40.7,169.2,44.2,166.4,44.2z M165,39.7c-1,1-1.9,2.5-1.9,3.1
			c0,0.3,0.2,0.4,0.5,0.4c0.6,0,1.7-0.7,2.5-1.7c0.9-1.1,1.4-2,1.4-2.5c0-0.3-0.2-0.5-0.5-0.5C166.5,38.4,165.7,39,165,39.7z"/>
		<path d="M174.2,44.2c-0.7,0-1.2-0.4-1.2-1.1c0-0.8,0.5-1.5,2.2-3.2c0.9-0.8,1-1.1,1-1.3c0-0.2-0.1-0.3-0.2-0.3c-0.2,0-0.6,0-1,0
			c-0.8,1-1.6,1.7-2.3,2.3l-0.3-0.5c0.9-0.8,1.5-1.3,2.1-2c-0.2-0.1-0.3-0.3-0.3-0.6c0-0.7,0.6-1.4,1.3-1.4c0.4,0,0.7,0.2,0.7,0.6
			c0,0.2,0,0.3-0.1,0.4c-0.1,0.2-0.2,0.3-0.2,0.4c0,0.1,0.1,0.2,0.2,0.2c0,0,0.4,0,0.6,0c0.6,0,0.9,0.3,0.9,0.8
			c0,0.3-0.3,0.8-0.6,1.2c-0.5,0.7-2.2,2.9-2.2,3.2c0,0.2,0.1,0.3,0.4,0.3c1,0,3.2-1.4,4.8-3l0.3,0.5
			C177.8,42.7,175.7,44.2,174.2,44.2z"/>
		<path d="M182.8,43.4c0-0.1,0.1-0.2,0.2-0.5c-1.3,1-2.2,1.3-3,1.3c-0.8,0-1.3-0.5-1.3-1.3c0-0.8,0.7-2,1.7-3
			c1.2-1.1,3.1-2.1,4.2-2.1c0.5,0,0.8,0.3,0.9,0.7l2.3-3.5c2-3.1,3.8-5.7,5.6-7.6c1.2-1.3,3-3,4-3.9c1.1-0.9,1.9-1.3,2.6-1.3
			c0.5,0,0.9,0.3,0.9,1c0,1.3-1.4,2.9-2.8,4.4c-0.4,0.5-2.9,2.9-4.9,4.6c-1.5,1.3-2.3,2.1-4.5,3.9c-0.3,0.3-3.9,6.3-3.9,6.3
			c-0.1,0.2-0.2,0.3-0.2,0.5c0,0.2,0.1,0.3,0.4,0.3c0.8,0,3-1.4,4.5-2.9l0.3,0.5c-0.4,0.4-4.2,3.4-6,3.4
			C183.2,44.2,182.8,43.9,182.8,43.4z M181.5,40.8c-0.6,1-1,1.6-1,2c0,0.3,0.1,0.3,0.4,0.3c0.6,0,1.7-0.7,2.6-1.7
			c0.9-1,1.4-2,1.4-2.5c0-0.3-0.2-0.5-0.5-0.5C183.4,38.4,182.2,39.7,181.5,40.8z M197.5,26.8c1.3-1.6,2-2.8,2-3.2
			c0-0.2,0-0.3-0.3-0.3c-0.3,0-0.8,0.3-1.3,0.8c-1,0.9-2.3,2.3-4.7,5.5c-1.6,2.2-2.3,2.9-3.6,5.1c1.4-1.2,1.9-1.6,3.2-2.9
			C194.6,30,196.5,28,197.5,26.8z"/>
		<path d="M188.2,43.1c0-0.4,0.2-0.7,0.6-1.3l0.5-0.7l-0.6,0.3l-0.2-0.3c0.6-0.5,0.7-0.6,1.4-1.3c0.8-0.8,1.1-1.1,1.8-1.9h1.8
			l-3.4,4.5c-0.1,0.1-0.2,0.3-0.2,0.5c0,0.2,0.2,0.4,0.5,0.4c0.8,0,3-1.5,4.6-3l0.3,0.5c-1.1,1-3.9,3.4-5.9,3.4
			C188.7,44.2,188.2,43.8,188.2,43.1z M196.6,33c-0.6,0-0.8-0.3-0.8-0.7c0-0.6,0.5-1.1,1.3-1.1c0.5,0,0.8,0.2,0.8,0.7
			C197.8,32.5,197.3,33,196.6,33z"/>
		<path d="M199.8,44.2c-0.8,0-1.3-0.4-1.3-1.1c0-0.6,0.3-1,2-3c0.6-0.8,0.9-1.1,0.9-1.3c0-0.1-0.1-0.2-0.2-0.2
			c-0.4,0-1.3,0.5-2.3,1.3c-1.5,1.2-2.8,2.6-3.8,4.1h-1.7l2.1-3.2l-1.1,0.6l-0.2-0.3c0.6-0.5,0.8-0.7,1.4-1.3c1-1,1.3-1.3,1.7-1.9
			h1.4l-1.6,2.7l0.4-0.3c1.9-1.6,3.3-2.6,4.2-2.6c0.7,0,1.1,0.3,1.1,1c0,0.4-0.2,0.8-0.5,1.2l-1.1,1.5c-0.6,0.8-0.9,1.2-0.9,1.4
			c0,0.3,0.1,0.4,0.4,0.4c1,0,4-2.6,4.5-3l0.3,0.5C205.2,41.1,202,44.2,199.8,44.2z"/>
		<path d="M221,43.4c0-0.1,0.1-0.2,0.2-0.5c-1.3,1-2.2,1.3-3,1.3c-0.8,0-1.3-0.5-1.3-1.3c0-0.8,0.7-2,1.7-3c1.2-1.1,3.1-2.1,4.2-2.1
			c0.5,0,0.8,0.3,0.9,0.7l2.3-3.5c2-3.1,3.8-5.7,5.6-7.6c1.2-1.3,3-3,4-3.9c1.1-0.9,1.9-1.3,2.6-1.3c0.5,0,0.9,0.3,0.9,1
			c0,1.3-1.4,2.9-2.8,4.4c-0.4,0.5-2.9,2.9-4.9,4.6c-1.5,1.3-2.3,2.1-4.5,3.9c-0.3,0.3-3.9,6.3-3.9,6.3c-0.1,0.2-0.2,0.3-0.2,0.5
			c0,0.2,0.1,0.3,0.4,0.3c0.8,0,3-1.4,4.5-2.9l0.3,0.5c-0.4,0.4-4.2,3.4-6,3.4C221.5,44.2,221,43.9,221,43.4z M219.7,40.8
			c-0.6,1-1,1.6-1,2c0,0.3,0.1,0.3,0.4,0.3c0.6,0,1.7-0.7,2.6-1.7c0.9-1,1.4-2,1.4-2.5c0-0.3-0.2-0.5-0.5-0.5
			C221.6,38.4,220.5,39.7,219.7,40.8z M235.7,26.8c1.3-1.6,2-2.8,2-3.2c0-0.2,0-0.3-0.3-0.3c-0.3,0-0.8,0.3-1.3,0.8
			c-1,0.9-2.3,2.3-4.7,5.5c-1.6,2.2-2.3,2.9-3.6,5.1c1.4-1.2,1.9-1.6,3.2-2.9C232.8,30,234.7,28,235.7,26.8z"/>
		<path d="M228.4,44.2c-1.2,0-1.8-0.5-1.8-1.4c0-0.8,0.4-1.7,1.3-2.6c1.3-1.3,3.3-2.3,4.6-2.3c0.6,0,1,0.2,1,0.6
			c0,0.9-0.7,1.5-4.8,3.5c0,0.2-0.1,0.3-0.1,0.5c0,0.6,0.3,0.9,1,0.9c1.2,0,3.2-1.3,5.1-3l0.3,0.5C233.6,41.8,230.6,44.2,228.4,44.2
			z M231.9,38.4c-0.6,0-1.9,1.2-2.7,2.5c1.9-0.8,3-1.6,3-2.2C232.2,38.6,232.1,38.4,231.9,38.4z"/>
		<path d="M234.9,40.7l-0.3-0.5c0.8-0.6,1.6-1.3,2.4-2c0.2-1.3,0.8-1.9,1.9-1.9c0.4,0,0.6,0.1,0.6,0.4c0,0.5-0.8,1.2-1.3,1.6
			c0.4,1,0.6,1.6,0.6,2.2c0,0.8-0.2,1.3-0.7,2.1c1.6-0.5,2.2-0.9,3.9-2.4l0.3,0.5c-1.3,1.2-2.5,2.4-5.2,2.6c-1,0.6-1.8,0.8-2.8,0.8
			c-1.8,0-2.9-0.4-2.9-1.1c0-0.5,0.6-0.9,1.6-0.9c0.9,0,2.6,0.6,3.3,0.6c0.6-0.6,0.7-1,0.8-3.6C236.4,39.6,235.6,40.2,234.9,40.7z
			 M233.4,42.9c-0.4,0-0.5,0.1-0.5,0.3c0,0.2,0.5,0.4,1.3,0.4c0.4,0,0.7-0.1,1.3-0.3C235.5,43.3,233.9,42.9,233.4,42.9z"/>
		<path d="M275.8,24.9c0,0.9-1,1.5-2.5,1.5c-2.1,0-3.6-1-4.6-3c-6.4,1.5-10.9,6.8-10.9,12.6c0,5,3.2,7.9,8.6,7.9
			c1.9,0,3.8-0.3,5.7-1c4.5-1.6,7.7-4.8,7.7-7.9c0-2.6-2-4.3-4.9-4.3c-2,0-4.2,0.8-6.1,2.2c-2.4,1.7-4,4-4,5.9c0,0.5,0,0.7,0.3,1.4
			l-0.3,0.1c-0.3-0.6-0.4-1.1-0.4-1.7c0-1.8,1.2-3.9,3-5.4c2.1-1.8,5-2.9,7.6-2.9c3.4,0,5.8,1.9,5.8,4.6c0,4.9-7,9.6-14.3,9.6
			c-6.4,0-10.8-3.5-10.8-8.6c0-5.7,5.5-11.2,12.9-12.9c-0.1-0.5-0.2-0.7-0.2-1.1c0-4.8,5.8-9.2,12.3-9.2c4.2,0,7.1,2.3,7.1,5.5
			c0,3-2.9,5.3-6.5,5.3c-2.4,0-4.2-1.3-4.2-3c0-1.3,1.2-2.5,2.9-2.7l0.1,0.3c-1.5,0.5-2.3,1.4-2.3,2.5c0,1.4,1.5,2.5,3.5,2.5
			c3.1,0,5.8-2.4,5.8-5.1c0-2.8-2.6-4.7-6.2-4.7c-5.8,0-10.9,4.2-10.9,8.9c0,0.3,0,0.4,0.1,0.8c0.6,0,0.9,0,1.2,0
			C273.7,22.7,275.8,23.7,275.8,24.9z M275,25c0-1.1-1.6-1.8-3.7-1.8c-0.3,0-0.6,0-1.2,0.1c0.5,1.7,1.7,2.6,3.4,2.6
			C274.4,25.9,275,25.5,275,25z M277,10.9c3-0.6,8.3-3.1,8.3-5.4c0-0.4-0.2-0.7-0.6-0.7c-0.9,0-1.3,2.9-4.4,4.8
			c-0.9,0.5-1.9,0.9-3.2,1.2V10.9z"/>
		<path d="M281.7,44.2c-0.9,0-1.3-0.3-1.3-1.1c0-0.5,0.1-0.8,0.9-1.9l-0.5,0.3l-0.3-0.3c0.6-0.5,0.7-0.7,1.4-1.3
			c0.3-0.3,0.6-0.5,0.8-0.7c0.6-0.7,1.3-1.5,2.9-3.8h-0.5h-3.1h-0.6l0.3-0.5c0.8,0,1-0.1,2.1-0.1c1,0,1.6,0,1.9,0h0.4l2.3-2.9
			c1.3-1.7,1.6-1.9,2.5-1.9c0.3,0,0.4,0,0.4,0.1s-0.3,0.6-0.3,0.6l-3.1,4.1l0.6,0h2.5l-0.2,0.5c-1.5,0.1-2.3,0.1-3.1,0.1h-0.3
			c-1.1,1.6-4.4,6.1-4.8,6.6c-0.3,0.5-0.5,0.8-0.5,1c0,0.3,0.2,0.4,0.5,0.4c0.9,0,3.1-1.4,4.8-3l0.3,0.5
			C286.7,41.6,283.4,44.2,281.7,44.2z"/>
		<path d="M287.7,44.2c-1.1,0-1.6-0.6-1.6-1.5c0-1.1,1-2.5,2.4-3.5c1.2-0.9,2.6-1.5,3.5-1.5c1.1,0,1.7,0.6,1.7,1.6
			c0,0.4,0,0.4-0.3,1.3c-0.1,0.2-0.1,0.4-0.1,0.4c0,0.3,0.3,0.6,0.7,0.6c0.5,0,1-0.3,2.1-1.4l0.3,0.5c-1.4,1.3-1.8,1.6-2.6,1.6
			c-0.6,0-0.9-0.2-1.3-0.6C291.3,42.9,289.3,44.2,287.7,44.2z M288.8,40.6c-0.6,0.9-1,1.7-1,2.2c0,0.4,0.2,0.6,0.6,0.6
			c1,0,2.5-1.3,3.6-3.1c0-0.3-0.1-0.5-0.1-0.6c0-0.3,0.1-0.6,0.3-0.9c-0.1-0.2-0.3-0.3-0.6-0.3C290.8,38.4,289.3,39.8,288.8,40.6z"
			/>
		<path d="M294.8,43.1c0-0.4,0.2-0.7,0.6-1.3l0.5-0.7l-0.6,0.3l-0.2-0.3c0.6-0.5,0.7-0.6,1.4-1.3c0.8-0.8,1.1-1.1,1.8-1.9h1.8
			l-3.4,4.5c-0.1,0.1-0.2,0.3-0.2,0.5c0,0.2,0.2,0.4,0.5,0.4c0.8,0,3-1.5,4.6-3l0.3,0.5c-1.1,1-3.9,3.4-5.9,3.4
			C295.3,44.2,294.8,43.8,294.8,43.1z M303.2,33c-0.6,0-0.8-0.3-0.8-0.7c0-0.6,0.5-1.1,1.3-1.1c0.5,0,0.8,0.2,0.8,0.7
			C304.4,32.5,303.8,33,303.2,33z"/>
		<path d="M306.6,36.1l-3.9,6.3c-0.1,0.2-0.2,0.3-0.2,0.5c0,0.2,0.1,0.3,0.3,0.3c0.8,0,3-1.4,4.6-2.9l0.3,0.5c-1.1,1-4.1,3.4-6,3.4
			c-0.7,0-1.1-0.3-1.1-1c0-0.8,1.1-2.4,1.1-2.4l-1,0.6l-0.2-0.3c0.6-0.5,0.7-0.6,1.4-1.3c0.8-0.8,1.1-1.1,1.8-1.9l2.6-4
			c1.9-2.8,3.3-4.6,5-6.5c1.2-1.3,2.9-3,4-3.9c1.1-0.9,1.9-1.3,2.5-1.3c0.6,0,0.9,0.3,0.9,1c0,0.8-0.5,1.8-1.6,3.1
			c-1.2,1.5-4.9,4.9-6,5.9C309.4,33.9,308.6,34.5,306.6,36.1z M317.6,23.6c0-0.2-0.1-0.3-0.3-0.3c-0.3,0-0.8,0.3-1.3,0.8
			c-1,0.9-2.2,2.4-4.6,5.5l-3.7,5.1c2.8-2.3,6-5.5,8-7.8C316.8,25.2,317.6,24,317.6,23.6z"/>
		<path d="M308.2,44.2c-1.2,0-1.8-0.5-1.8-1.4c0-0.8,0.4-1.7,1.3-2.6c1.3-1.3,3.3-2.3,4.6-2.3c0.6,0,1,0.2,1,0.6
			c0,0.9-0.7,1.5-4.8,3.5c0,0.2-0.1,0.3-0.1,0.5c0,0.6,0.3,0.9,1,0.9c1.2,0,3.2-1.3,5.1-3l0.3,0.5C313.4,41.8,310.5,44.2,308.2,44.2
			z M311.7,38.4c-0.6,0-1.9,1.2-2.7,2.5c1.9-0.8,3-1.6,3-2.2C312,38.6,312,38.4,311.7,38.4z"/>
		<path d="M314.7,40.7l-0.3-0.5c0.8-0.6,1.6-1.3,2.4-2c0.2-1.3,0.8-1.9,1.9-1.9c0.4,0,0.6,0.1,0.6,0.4c0,0.5-0.8,1.2-1.3,1.6
			c0.4,1,0.6,1.6,0.6,2.2c0,0.8-0.2,1.3-0.7,2.1c1.6-0.5,2.2-0.9,3.9-2.4l0.3,0.5c-1.3,1.2-2.5,2.4-5.2,2.6c-1,0.6-1.8,0.8-2.8,0.8
			c-1.8,0-2.9-0.4-2.9-1.1c0-0.5,0.6-0.9,1.6-0.9c0.9,0,2.6,0.6,3.3,0.6c0.6-0.6,0.7-1,0.8-3.6C316.2,39.6,315.4,40.2,314.7,40.7z
			 M313.3,42.9c-0.4,0-0.5,0.1-0.5,0.3c0,0.2,0.5,0.4,1.3,0.4c0.4,0,0.7-0.1,1.3-0.3C315.3,43.3,313.7,42.9,313.3,42.9z"/>
	</g>
</g>
</svg>
