<?xml version="1.0" encoding="utf-8"?>
<!-- Generator: Adobe Illustrator 22.1.0, SVG Export Plug-In . SVG Version: 6.00 Build 0)  -->
<!DOCTYPE svg PUBLIC "-//W3C//DTD SVG 1.1//EN" "http://www.w3.org/Graphics/SVG/1.1/DTD/svg11.dtd">
<svg version="1.1" id="Calque_1" xmlns="http://www.w3.org/2000/svg" xmlns:xlink="http://www.w3.org/1999/xlink" x="0px" y="0px"
	 viewBox="0 0 1440 1440" style="enable-background:new 0 0 1440 1440;" xml:space="preserve">
<style type="text/css">
	.st0{fill:#B3B3B3;}
</style>
<g>
	<g>
		<g>
			<g>
				<g>
					<path class="st0" d="M885.3,1020.1c0,4.1-3.3,7.3-7.3,7.3h-75.3c-4,0-7.2-3.2-7.2-7.3c0-4,3.2-7.2,7.2-7.2H878
						C881.9,1012.9,885.3,1016.1,885.3,1020.1z"/>
				</g>
			</g>
			<g>
				<g>
					<path class="st0" d="M666,902l-98.2-42.8l-2.2-1l-1.7-1.7l-53.7-53.7c-1.5-1.5-3.3-1.9-4.6-2.1l-12.1-0.8v-50.5l5.8-3.8
						c44.7-29.4,74.8-74.4,84.6-126.8l2-10.9l11.2,0.5h1.9c3.5,0,6.9-0.4,10.4-1.2c20-4.7,34.5-24.2,34.5-46.2v-14.6
						c0-15.6-7.6-30.3-20.1-38.9l-7.4-5.1l2.2-8.6c4.4-17.3,6.7-35,6.7-52.6c0-76-40-146.3-106.8-187.8l-6-3.7v-7.1
						c-0.8-62.3-54.6-113.1-120.1-113.1s-119.4,50.8-120,113.1l-0.1,7.1l-5.9,3.7c-66.9,41.5-106.8,111.8-106.8,187.8
						c0,17.6,2.2,35.1,6.5,52.4l2.2,8.6l-7.4,5.1c-12.6,8.6-20.1,23.2-20.1,39.1v14.5c0,21.9,14.5,41.4,34.5,46.2
						c3.5,0.8,6.9,1.2,10.4,1.2h2.1l11-0.5l2,10.9c9.9,52.4,40,97.4,84.6,126.8l5.8,3.8V800l-11.9,0.8c-1.3,0.1-3.1,0.5-4.7,2.1
						l-53.6,53.7l-1.8,1.7l-2.2,1L118.7,902c-45.1,19.6-74,65.9-71.9,115.1l11.8,280c0.3,3.8,3.5,6.9,7.3,6.9
						c2.3-0.1,4.1-0.9,5.4-2.3c1.3-1.5,1.9-3.3,1.9-5.3l-11.9-280c-0.8-20,4.2-40,14.5-57.6l9.2-15.8l11.7,14l52.8,63.3
						c18.6,22.3,28.7,50.5,28.7,79.5v196.8c0,4,3.3,7.3,7.3,7.3c4.1,0,7.3-3.3,7.3-7.3V1100c0-32.3-11.4-64-32.2-88.9l-56-67.3
						l-9.1-10.8l11.7-7.9c5.6-4,11.5-7.2,17.3-9.7l85.5-37.3l10.3-4.5l5.8,9.5l60.5,98.1c4,6.5,10.6,10.9,18.1,12.1
						c1.4,0.3,2.7,0.4,4.1,0.4c6.2,0,12.2-2.3,16.9-6.3l38.3-32.7l21.2-18.1v360.3c0,4,3.2,7.3,7.2,7.3c4.1,0,7.3-3.3,7.3-7.3V936.5
						l21.2,18.1l38.3,32.7c4.6,4,10.6,6.3,16.8,6.3c1.4,0,2.8-0.1,4.1-0.4c7.6-1.2,14.2-5.5,18.2-12.1l60.4-98.1l5.9-9.5l10.1,4.5
						l85.5,37.3c5.9,2.6,11.8,5.8,17.4,9.7l11.5,7.9l-9,10.8l-56,67.3c-20.8,24.9-32.2,56.5-32.2,88.9v196.8c0,4,3.2,7.3,7.2,7.3
						c4.1,0,7.3-3.3,7.3-7.3V1100c0-29,10.3-57.2,28.8-79.5l52.7-63.3l11.7-14l9.2,15.8c10.4,17.6,15.4,37.6,14.5,57.6l-11.8,280
						v0.4c0,3.8,3.1,7.1,6.9,7.2c4.2,0,7.4-3.1,7.6-6.9l11.9-280C740,967.9,711,921.7,666,902z M290.5,217.7
						c12.6-43.3,54.4-73.5,101.8-73.5s89.4,30.1,101.8,73.5l7.2,24.6l-24-9.1c-27.1-10.3-55.6-15.4-85-15.4
						c-29.2,0-57.8,5.1-84.9,15.4l-24,9.1L290.5,217.7z M214.7,615.2c-2.2-12.2-13.1-21.4-25.4-21.4h-1.7c-0.8,0.1-1.4,0.1-2.2,0.1
						c-2.3,0-4.6-0.3-7-0.9c-13.5-3.2-23.2-16.7-23.2-31.9v-14.5c0-15.5,10.6-29.2,24.7-31.7c1.8-0.4,3.7-0.5,5.5-0.5
						c9.5,0,18.2,4.4,24.1,11.9c2.1,2.7,4.7,4.5,7.7,5.5c1.4,0.4,2.9,0.6,4.5,0.6c3.1,0,6.3-1,8.7-2.8c11.3-7.9,21.3-17.7,29.6-28.8
						c2.4-3.2,1.8-7.8-1.4-10.1c-1.5-1.3-3.2-1.5-4.4-1.5c-2.3,0-4.4,1-5.8,2.9c-5.1,6.8-10.9,13-17.2,18.5l-8.3,7.2l-8.5-7.2
						c-6.7-5.6-14.7-9.2-23.6-10.3l-8.6-1.2l-2.2-8.5c-4.1-16.3-6.3-32.8-6.3-49.4c0-115.3,98-209,218.4-209s218.4,93.7,218.4,209
						c0,16.5-2.1,33.1-6.2,49.2l-2.3,9l-9.1,0.6c-4.6,0.4-9.4,1.2-13.5,2.2l-6.3,1.7l-5.1-4.1l-15-12.4c-4.7-3.8-10.5-5.9-16.4-5.9
						h-1.5c-4.9,0.3-12.8,0.6-23,0.6c-50.8,0-176.4-9-246-92.3c-1.4-1.7-3.5-2.7-5.6-2.7c-1.2,0-2.9,0.4-4.6,1.8
						c-3.1,2.6-3.5,7.1-0.9,10.1c36.3,43.6,90,73.1,159.6,87.8c38.6,8.1,74.1,9.9,97.1,9.9c10.4,0,18.6-0.4,23.7-0.6l5-0.4l3.8,3.2
						l23.6,19.4c1.3,1.2,2.9,1.7,4.6,1.7c1.3,0,2.4-0.3,3.6-0.9c6.3-3.5,17.2-4.7,22.6-4.7c2.4,0,4.4,0.3,6.2,0.5
						c14.2,2.9,24.6,16.2,24.6,31.5v14.6c0,15.4-9.9,28.7-23.3,31.9c-2.3,0.6-4.7,0.9-7.1,0.9c-0.6,0-1.4,0-2-0.1h-1.8
						c-12.2,0-23.1,9.2-25.4,21.4C554.1,700.9,479.5,763,392.3,763C305.2,763,230.5,700.9,214.7,615.2z M371,929.3l-53.7,45.9
						l-11.4,9.7l-7.8-12.8l-60.4-98.1l-5.4-8.6l7.2-7.2l31-31l9-9l9.1,9l83.2,83.3l9.9,9.7L371,929.3z M392.3,910.5l-9-9.1l-74-73.9
						l-3.7-3.7v-65.5l17.3,6.5c22.3,8.6,45.6,12.8,69.4,12.8c23.8,0,47.2-4.2,69.4-12.7l17.4-6.7v65.5l-3.8,3.7L392.3,910.5z
						 M547,874.1l-60.5,98.1l-7.8,12.8l-11.4-9.7l-53.7-45.9l-10.5-9l9.7-9.7l83.2-83.3l9.1-9l9.1,9l30.9,31l7.2,7.2L547,874.1z"/>
				</g>
			</g>
			<g>
				<g>
					<path class="st0" d="M840.3,975.3c4.1,0,7.3,3.3,7.3,7.3v75.3c0,4-3.2,7.2-7.3,7.2c-4,0-7.2-3.2-7.2-7.2v-75.3
						C833.2,978.6,836.4,975.3,840.3,975.3z"/>
				</g>
			</g>
		</g>
		<g>
			<g>
				<path class="st0" d="M324.3,1108.8c0,4-3.2,7.3-7.2,7.3h-56.4c-4.1,0-7.3-3.3-7.3-7.3c0-4.1,3.2-7.3,7.3-7.3h56.4
					C321.1,1101.5,324.3,1104.7,324.3,1108.8z"/>
			</g>
			<g>
				<path class="st0" d="M317.2,1116.2h-56.4c-4.1,0-7.3-3.3-7.3-7.3c0-4.1,3.2-7.3,7.3-7.3h56.4c4,0,7.2,3.2,7.2,7.3
					C324.3,1112.8,321.1,1116.2,317.2,1116.2z"/>
			</g>
		</g>
		<g>
			<g>
				<path class="st0" d="M288.9,1073.4c4,0,7.3,3.2,7.3,7.2v56.4c0,4.1-3.3,7.3-7.3,7.3c-4.1,0-7.3-3.2-7.3-7.3v-56.4
					C281.6,1076.6,284.8,1073.4,288.9,1073.4z"/>
			</g>
			<g>
				<path class="st0" d="M296.2,1080.6v56.4c0,4.1-3.3,7.3-7.3,7.3c-4.1,0-7.3-3.2-7.3-7.3v-56.4c0-4,3.2-7.2,7.3-7.2
					C292.9,1073.4,296.2,1076.6,296.2,1080.6z"/>
			</g>
		</g>
	</g>
	<g>
		<path class="st0" d="M1325.4,1297.8c-0.1,0-0.2,0-0.3,0c-3.4-0.1-6.1-3-5.9-6.4l12.4-296.6c0.1-3.4,2.7-6,6.4-5.9
			c3.4,0.1,6.1,3,5.9,6.4l-12.4,296.6C1331.4,1295.2,1328.7,1297.8,1325.4,1297.8z"/>
	</g>
	<g>
		<path class="st0" d="M435.5,1310.2c-3.4,0-6.2-2.8-6.2-6.2v-284.3c0-3.4,2.8-6.2,6.2-6.2s6.2,2.8,6.2,6.2V1304
			C441.7,1307.4,438.9,1310.2,435.5,1310.2z"/>
	</g>
	<g>
		<path class="st0" d="M571.4,420.3c-2.5,0-4.9-1.6-5.8-4.1c-47.4-130.4-166-131.9-167.2-131.9c-3.4,0-6.2-2.8-6.2-6.2
			s2.8-6.2,6.2-6.2c1.3,0,128.5,1.6,178.8,140c1.2,3.2-0.5,6.8-3.7,7.9C572.8,420.1,572.1,420.3,571.4,420.3z"/>
	</g>
	<g>
		<path class="st0" d="M1177.1,309c-2.8,0-5.3-1.9-6-4.7c-11-44.1-32.1-75.5-62.6-93.5c-47.4-27.8-102.3-13.4-102.8-13.3
			c-3.3,0.9-6.7-1.1-7.6-4.3c-0.9-3.3,1.1-6.7,4.3-7.6c2.4-0.7,60.3-15.9,112.2,14.5c33.5,19.6,56.6,53.7,68.5,101.2
			c0.8,3.3-1.2,6.7-4.5,7.5C1178.1,309,1177.6,309,1177.1,309z"/>
	</g>
	<g>
		<path class="st0" d="M114.1,1297.8c-3.3,0-6-2.6-6.2-5.9l-12.4-259.6c-0.2-3.4,2.5-6.3,5.9-6.5c3.5-0.3,6.3,2.5,6.5,5.9
			l12.4,259.6c0.2,3.4-2.5,6.3-5.9,6.5C114.3,1297.8,114.2,1297.8,114.1,1297.8z"/>
	</g>
	<g>
		<path class="st0" d="M1030,1310.2c-3.4,0-6.2-2.8-6.2-6.2v-284.3c0-3.4,2.8-6.2,6.2-6.2s6.2,2.8,6.2,6.2V1304
			C1036.1,1307.4,1033.4,1310.2,1030,1310.2z"/>
	</g>
	<g>
		<path class="st0" d="M1315.9,796.9l-109.4-42.1l-2.5-1.1l-57.7-57.6c-1.6-1.6-3.5-2-4.6-2l-12-0.8v-61.6l3.4-3.7
			c25.4-27,42.5-60.6,49.4-97.2l2-10.8l11.2,0.5h1.9c2.9,0,6-0.2,8.9-0.9c20.8-4.2,35.9-23.6,35.9-46.3v-14.7
			c0-12.5-5.1-24.9-14-33.6l-4.7-4.9l1.4-6.7c16.9-92.4,3.3-167.6-39.7-217.1c-37.6-43.5-97.6-66.6-173.5-66.6
			c-6.9,0-14.2,0.2-21.6,0.7c-80.8,4.3-132.8,42.4-146.9,53.9l-2.9,2.5l-3.7,0.3c-7.3,0.9-21.8,3.7-36.3,12.3
			c-19.3,11.8-42.7,36.6-42.7,88.6c0,48,7.5,88.4,13.6,113.7l2.5,10.1l-9.3,4.5c-15.5,7.6-25.5,24.2-25.5,42.5v14.4
			c0,22.7,15.1,42.1,35.9,46.3c2.9,0.7,5.9,0.9,8.9,0.9h2l11.1-0.5l2,10.8c7,36.6,24.1,70.2,49.4,97.2l3.5,3.7v61.6l-12.1,0.8
			c-1.2,0-3.1,0.5-4.6,2l-55.8,55.7l-1.9,1.9l-2.5,1.1l-109.5,42.1c-8.5,3.3-16.6,7.6-24.2,12.7c-3.4,2.4-4.3,6.8-1.9,10.2
			c1.2,2,3.5,3.2,6,3.2c1,0,2.6-0.2,4.1-1.2c6.6-4.5,13.8-8.4,21.4-11.2l101.5-39.2l9.6-3.7l5.6,8.6l77.7,116.5
			c7.5,11.2,19.4,18.4,32.9,19.8c1.5,0.1,3.1,0.2,4.5,0.2c7.6,0,15.3-2,21.9-5.9l35.7-33.3l3.5-3.4l20.8-20.8v454.7
			c0,3.5,2.7,6.2,6.2,6.2c3.4,0,6.1-2.7,6.1-6.2V849.2l2.9,2.9l17.9,17.9l3.5,3.4l35.7,33.3c6.7,3.8,14.2,5.9,21.9,5.9
			c1.6,0,2.9-0.1,4.5-0.2c13.4-1.4,25.4-8.6,33-19.8l77.5-116.5l5.8-8.6l9.6,3.7l101.6,39.2c15.6,6,29.8,16,41.1,28.7l7.9,9
			l-8.6,8.5l-69.5,69.5c-22.6,22.6-35,52.8-35,85v285.7c0,4,3.2,7.3,7.2,7.3c4,0,7.2-3.4,7.2-7.3v-285.7c0-28.2,11-54.8,31-74.6
			l60.9-61.1l15.7-15.6l5.8,21.2c2.9,10.5,4.1,21.4,3.7,32.1l-15.7,383.4c0,0.1,0,0.1,0,0.2c0,3.8,3.3,7.2,7.1,7.3
			c4.2,0,7.5-3.2,7.6-7.1l15.5-383.3C1394.8,862.5,1364.1,815.3,1315.9,796.9z M813.2,527.2c-2.1-12.2-13.2-21.5-25.3-21.5h-1.8
			c-0.7,0.1-1.5,0.1-2.1,0.1c-2,0-4.1-0.2-6-0.7c-14.1-2.7-24.3-16.4-24.3-32.1v-14.4c0-15.7,10.6-29.4,24.9-31.9
			c1.8-0.2,3.5-0.5,5.3-0.5c9.6,0,18.4,4.3,24.2,11.9c2,2.7,4.7,4.6,7.8,5.5c1.4,0.3,2.8,0.7,4.3,0.7c3.3,0,6.3-1,8.9-2.8
			c11.4-8.1,21.5-18,29.9-29.4c2.5-3.3,1.8-7.8-1.4-10.2c-1.7-1.1-3.4-1.4-4.4-1.4c-2.3,0-4.4,1-5.9,2.8c-5.1,7-11.1,13.3-17.5,19
			l-8.4,7.2l-8.4-7.1c-5-4.3-10.6-7.3-16.9-9.2l-7-1.9l-1.9-7.1c-5.5-21.2-14.8-64.4-14.8-116.5c0-35.5,11.4-60.7,34.1-75.1
			c16.9-10.7,34.7-11.5,36.6-11.6c2.1,0,4.1-0.8,5.4-2c2.1-2,53.6-49.5,142.6-54.4c7.1-0.5,14-0.6,20.8-0.6
			c71.4,0,127.6,21.4,162.5,61.5c38.4,44.3,51.5,111.9,37.9,195.5l-1.7,11.2l-11.3-0.3c-0.8-0.2-1.6-0.2-2.3-0.2
			c-4,0-8.2,0.5-12.4,1.2l-9.9,1.6l-4-9.5l-18.9-45.2c-1.1-2.7-3.8-4.5-6.8-4.5c-0.6,0-1.1,0.1-1.8,0.2
			c-0.6,0.2-47.7,12.2-105.4,12.2c-78.5,0-138.4-22.8-173.1-65.9c-1.4-1.8-3.4-2.7-5.6-2.7c-1.1,0-2.9,0.2-4.5,1.6
			c-1.6,1.2-2.5,2.9-2.7,4.9c-0.1,1.9,0.3,3.8,1.5,5.4c47.6,59.2,126.9,71.6,184.8,71.6c38.1,0,71.3-5.2,92.5-9.4l10.2-2l4.2,9.7
			l14.6,35c3.1,7.7,10.5,12.5,18.6,12.5c1.6,0,3.2-0.1,4.6-0.5c6.3-1.5,11.8-1.7,14.5-1.7c2.3,0,4.3,0.1,6.1,0.5
			c14.2,2.8,24.5,16,24.5,31.4v14.7c0,15.7-10.2,29.4-24.3,32.1c-2,0.5-4,0.7-6,0.7c-0.8,0-1.4,0-2.1-0.1h-1.7
			c-12.3,0-23.2,9.3-25.4,21.6c-15.7,85.7-90.5,147.8-177.5,147.8C903.6,675.1,829,612.9,813.2,527.2z M924.1,889.2
			c-5.6,5.6-13.2,8.8-21.4,8.8c-1.1,0-2.1,0-3.1-0.1c-9.2-0.9-17.2-5.8-22.3-13.3l-78.3-117.3l-5.8-8.9l47.3-47.2l9.2,7.8l120,105.1
			l10.4,9L924.1,889.2z M999.3,815.8l-8.5,7.2l-8.5-7.2l-111.5-97.6l-4.4-3.8v-67.7l19.8,12.5c31.3,19.9,67.5,30.4,104.6,30.4
			c37.2,0,73.3-10.5,104.6-30.4l19.7-12.5v67.7l-4.4,3.8L999.3,815.8z M1182.4,767.2l-78.2,117.4c-5,7.6-13.1,12.4-22.3,13.3
			c-0.8,0.1-1.9,0.1-3.1,0.1c-8,0-15.6-3.2-21.4-8.8l-46.4-46.4l-9.6-9.7l10.3-9l120.1-105.1l8.9-7.8l8.6,8.5l31.4,31.4l7.5,7.3
			L1182.4,767.2z"/>
	</g>
</g>
</svg>
