<?xml version="1.0" encoding="utf-8"?>
<!-- Generator: Adobe Illustrator 22.1.0, SVG Export Plug-In . SVG Version: 6.00 Build 0)  -->
<!DOCTYPE svg PUBLIC "-//W3C//DTD SVG 1.1//EN" "http://www.w3.org/Graphics/SVG/1.1/DTD/svg11.dtd">
<svg version="1.1" id="Calque_1" xmlns="http://www.w3.org/2000/svg" xmlns:xlink="http://www.w3.org/1999/xlink" x="0px" y="0px"
	 viewBox="0 0 128 128" style="enable-background:new 0 0 128 128;" xml:space="preserve">
<g>
	<path d="M110.3,106.4L103,24H85.2C84.1,13,75,4.3,64,4.3S43.9,13,42.8,24H25l-7.3,82.4c-0.3,4.5,1.2,8.9,4.2,12.2
		c3,3.3,7.2,5.2,11.6,5.2h61.1c4.4,0,8.6-1.9,11.5-5.1C109.1,115.3,110.6,110.8,110.3,106.4z M64,8.5c8.8,0,16,6.7,17,15.4H47
		C48,15.3,55.2,8.5,64,8.5z M103.1,115.7c-2.2,2.4-5.2,3.8-8.5,3.8H33.4c-3.3,0-6.3-1.3-8.5-3.8c-2.2-2.4-3.3-5.6-3.1-9l7-78.5h70.5
		l7,78.5C106.4,110,105.3,113.2,103.1,115.7z"/>
</g>
</svg>
